<svg width="282" height="208" viewBox="0 0 282 208" fill="none" xmlns="http://www.w3.org/2000/svg">
<rect width="122" height="28" rx="10" fill="#00B43F"/>
<rect y="180" width="122" height="28" rx="10" fill="#00B43F"/>
<rect y="144" width="122" height="28" rx="10" fill="#00B43F"/>
<rect y="108" width="122" height="28" rx="10" fill="#00B43F"/>
<rect y="72" width="122" height="28" rx="10" fill="#00B43F"/>
<rect y="36" width="122" height="28" rx="10" fill="#00B43F"/>
<path d="M22.7354 15.9697C22.7354 16.0837 22.7057 16.1885 22.6465 16.2842C22.5918 16.3799 22.5075 16.4642 22.3936 16.5371C22.2751 16.61 22.1224 16.6693 21.9355 16.7148C21.7533 16.7559 21.5391 16.7764 21.293 16.7764C21.0879 16.7764 20.8874 16.7559 20.6914 16.7148C20.5 16.6738 20.3291 16.6077 20.1787 16.5166C20.0283 16.43 19.9053 16.3161 19.8096 16.1748C19.7139 16.029 19.6592 15.8558 19.6455 15.6553H17.834C17.834 15.9561 17.9069 16.2568 18.0527 16.5576C18.2031 16.8538 18.4219 17.1182 18.709 17.3506C18.9961 17.5876 19.3516 17.779 19.7754 17.9248C20.2038 18.0706 20.696 18.1436 21.252 18.1436C21.7578 18.1436 22.2158 18.0889 22.626 17.9795C23.0361 17.8656 23.387 17.7083 23.6787 17.5078C23.9658 17.3073 24.1868 17.0703 24.3418 16.7969C24.5013 16.5189 24.5811 16.2158 24.5811 15.8877C24.5811 15.5322 24.5013 15.2269 24.3418 14.9717C24.1868 14.7119 23.9704 14.4909 23.6924 14.3086C23.4144 14.1309 23.084 13.985 22.7012 13.8711C22.3184 13.7572 21.9036 13.6637 21.457 13.5908C21.1471 13.5452 20.8919 13.4928 20.6914 13.4336C20.4909 13.3698 20.3337 13.2992 20.2197 13.2217C20.1012 13.1488 20.0192 13.0667 19.9736 12.9756C19.9281 12.8799 19.9053 12.7773 19.9053 12.668C19.9053 12.5586 19.9303 12.4561 19.9805 12.3604C20.0352 12.2601 20.1126 12.1735 20.2129 12.1006C20.3223 12.0186 20.4635 11.9548 20.6367 11.9092C20.8099 11.8636 21.0127 11.8408 21.2451 11.8408C21.5186 11.8408 21.751 11.875 21.9424 11.9434C22.1383 12.0117 22.2933 12.1029 22.4072 12.2168C22.4893 12.3034 22.5508 12.4014 22.5918 12.5107C22.6328 12.6156 22.6533 12.7295 22.6533 12.8525H24.5537C24.5537 12.5107 24.4785 12.194 24.3281 11.9023C24.1777 11.6107 23.9613 11.3577 23.6787 11.1436C23.3916 10.9339 23.043 10.7699 22.6328 10.6514C22.2227 10.5283 21.7601 10.4668 21.2451 10.4668C20.7529 10.4668 20.3109 10.5283 19.9189 10.6514C19.527 10.7744 19.1943 10.9408 18.9209 11.1504C18.6475 11.36 18.4378 11.6038 18.292 11.8818C18.1462 12.1598 18.0732 12.4515 18.0732 12.7568C18.0732 13.0713 18.1439 13.3493 18.2852 13.5908C18.431 13.8324 18.6315 14.0443 18.8867 14.2266C19.1419 14.4134 19.4473 14.5729 19.8027 14.7051C20.1628 14.8327 20.5592 14.9398 20.9922 15.0264C21.334 15.0902 21.6165 15.154 21.8398 15.2178C22.0632 15.2816 22.2432 15.3499 22.3799 15.4229C22.512 15.5003 22.6032 15.5824 22.6533 15.6689C22.708 15.7555 22.7354 15.8558 22.7354 15.9697ZM29.8584 8.79199H27.958V10.6035H26.2695V12.0049H27.958V15.3682C27.958 15.8558 28.0218 16.2751 28.1494 16.626C28.277 16.9723 28.4593 17.2572 28.6963 17.4805C28.9287 17.7083 29.209 17.877 29.5371 17.9863C29.8698 18.0911 30.2389 18.1436 30.6445 18.1436C30.8542 18.1436 31.0661 18.1322 31.2803 18.1094C31.499 18.0911 31.7087 18.0638 31.9092 18.0273C32.1097 17.9909 32.2988 17.9453 32.4766 17.8906C32.6543 17.8314 32.8092 17.763 32.9414 17.6855L32.7568 16.3799C32.6702 16.4027 32.5654 16.4255 32.4424 16.4482C32.3239 16.471 32.1963 16.4915 32.0596 16.5098C31.9183 16.5326 31.7702 16.5508 31.6152 16.5645C31.4648 16.5781 31.3167 16.585 31.1709 16.585C30.9704 16.585 30.7881 16.5622 30.624 16.5166C30.4645 16.471 30.3278 16.3936 30.2139 16.2842C30.0999 16.1794 30.0111 16.0381 29.9473 15.8604C29.888 15.6781 29.8584 15.4525 29.8584 15.1836V12.0049H32.6201V10.6035H29.8584V8.79199ZM35.9492 20.9873C36.332 20.9873 36.6624 20.9235 36.9404 20.7959C37.223 20.6683 37.4622 20.5111 37.6582 20.3242C37.8542 20.1374 38.016 19.9346 38.1436 19.7158C38.2757 19.4971 38.3828 19.2943 38.4648 19.1074L42.2178 10.6035H40.1191L38.4307 14.9512L38.1504 15.6895L37.9453 14.9375L36.25 10.6035H34.1719L37.3027 17.6855L36.8652 18.499C36.8105 18.5993 36.7627 18.6768 36.7217 18.7314C36.6852 18.7861 36.626 18.8682 36.5439 18.9775C36.4619 19.0869 36.3617 19.1872 36.2432 19.2783C36.1292 19.374 35.9971 19.4219 35.8467 19.4219C35.7738 19.4219 35.6758 19.4173 35.5527 19.4082C35.4342 19.4036 35.3363 19.4014 35.2588 19.4014L35.0264 20.8506C35.1904 20.8962 35.3385 20.9303 35.4707 20.9531C35.6074 20.9759 35.7669 20.9873 35.9492 20.9873ZM43.585 7.5V9.05176H45.7998V16.4551H43.585V18H49.8398V16.4551H47.7207V7.5H43.585ZM55.1855 18.1367C55.901 18.1367 56.5208 17.9977 57.0449 17.7197C57.569 17.4417 57.9518 17.1318 58.1934 16.79L57.2432 15.7646C57.0244 16.0472 56.7396 16.2591 56.3887 16.4004C56.0378 16.5417 55.6755 16.6123 55.3018 16.6123C55.0374 16.6123 54.7936 16.5713 54.5703 16.4893C54.347 16.4072 54.1488 16.291 53.9756 16.1406C53.807 15.9948 53.6725 15.833 53.5723 15.6553C53.472 15.473 53.39 15.2337 53.3262 14.9375V14.917H58.3438V14.1104C58.3438 13.568 58.2686 13.0736 58.1182 12.627C57.9678 12.1758 57.749 11.7907 57.4619 11.4717C57.1702 11.1527 56.8148 10.9066 56.3955 10.7334C55.9808 10.5557 55.5068 10.4668 54.9736 10.4668C54.4587 10.4668 53.9824 10.5602 53.5449 10.7471C53.1074 10.9339 52.7292 11.196 52.4102 11.5332C52.0911 11.8704 51.8428 12.2738 51.665 12.7432C51.4873 13.208 51.3984 13.723 51.3984 14.2881V14.5615C51.3984 15.0583 51.4873 15.5254 51.665 15.9629C51.8473 16.3958 52.1048 16.7718 52.4375 17.0908C52.7702 17.4144 53.1689 17.6696 53.6338 17.8564C54.0986 18.0433 54.6159 18.1367 55.1855 18.1367ZM54.96 12.0049C55.2015 12.0049 55.4134 12.0436 55.5957 12.1211C55.7826 12.194 55.9398 12.2943 56.0674 12.4219C56.195 12.554 56.2952 12.709 56.3682 12.8867C56.4411 13.0645 56.4775 13.2536 56.4775 13.4541V13.6045H53.3604C53.4059 13.363 53.4743 13.1442 53.5654 12.9482C53.6566 12.7523 53.7705 12.5837 53.9072 12.4424C54.0394 12.3011 54.1943 12.194 54.3721 12.1211C54.5498 12.0436 54.7458 12.0049 54.96 12.0049ZM66.5879 13.0986V11.54H60.1211V13.0986H66.5879ZM66.5879 16.0449V14.4932H60.1211V16.0449H66.5879ZM70.7783 8.23828V7.5H69.3701V8.27246V11.1094H70.5801L70.7783 8.23828ZM73.5879 8.23828V7.5H72.1865V8.25195V11.1094H73.3965L73.5879 8.23828ZM79.1865 8.23828V7.5H77.7783V8.27246V11.1094H78.9883L79.1865 8.23828ZM81.9961 8.23828V7.5H80.5947V8.25195V11.1094H81.8047L81.9961 8.23828Z" fill="white"/>
<rect x="160" width="122" height="28" rx="10" fill="#E5E5E5"/>
<path d="M182.619 18V8.04688H182.517L178.183 9.6123V11.2666L180.698 10.3643V18H182.619ZM190.262 17.8496L190.269 16.3389H188.484V17.9385C188.484 18.4398 188.425 18.8682 188.307 19.2236C188.188 19.5837 188.042 19.9277 187.869 20.2559L188.874 20.7754C189.284 20.4108 189.617 19.9619 189.872 19.4287C190.132 18.8955 190.262 18.3691 190.262 17.8496ZM201.261 14.2129V11.834C201.261 11.1914 201.186 10.6263 201.035 10.1387C200.885 9.64648 200.671 9.23405 200.393 8.90137C200.11 8.57324 199.768 8.32487 199.367 8.15625C198.966 7.98763 198.515 7.90332 198.014 7.90332C197.517 7.90332 197.068 7.98763 196.667 8.15625C196.271 8.32487 195.933 8.57324 195.655 8.90137C195.373 9.23405 195.156 9.64648 195.006 10.1387C194.855 10.6263 194.78 11.1914 194.78 11.834V14.2129C194.78 14.8555 194.855 15.4229 195.006 15.915C195.161 16.4027 195.38 16.8105 195.662 17.1387C195.94 17.4714 196.28 17.722 196.681 17.8906C197.082 18.0592 197.531 18.1436 198.027 18.1436C198.529 18.1436 198.98 18.0592 199.381 17.8906C199.782 17.722 200.121 17.4714 200.399 17.1387C200.677 16.8105 200.889 16.4027 201.035 15.915C201.186 15.4229 201.261 14.8555 201.261 14.2129ZM196.694 13.3926C196.694 13.2513 196.694 13.1442 196.694 13.0713C196.694 12.9984 196.694 12.8525 196.694 12.6338V11.5332C196.694 11.1641 196.722 10.8451 196.776 10.5762C196.836 10.3073 196.924 10.0885 197.043 9.91992C197.152 9.76042 197.287 9.64193 197.446 9.56445C197.61 9.48242 197.799 9.44141 198.014 9.44141C198.205 9.44141 198.376 9.47331 198.526 9.53711C198.681 9.59635 198.811 9.68978 198.916 9.81738C199.053 9.97689 199.155 10.1911 199.224 10.46C199.297 10.7243 199.338 11.0433 199.347 11.417L196.694 13.3926ZM199.347 14.5C199.347 14.8691 199.317 15.1904 199.258 15.4639C199.203 15.7327 199.119 15.9538 199.005 16.127C198.896 16.291 198.759 16.4141 198.595 16.4961C198.431 16.5736 198.242 16.6123 198.027 16.6123C197.795 16.6123 197.594 16.5667 197.426 16.4756C197.257 16.3844 197.118 16.2454 197.009 16.0586C196.913 15.9036 196.838 15.71 196.783 15.4775C196.733 15.2451 196.703 14.9785 196.694 14.6777L199.347 12.709C199.347 12.8411 199.347 12.9437 199.347 13.0166C199.347 13.085 199.347 13.1943 199.347 13.3447V14.5ZM207.078 17.8496L207.085 16.3389H205.301V17.9385C205.301 18.4398 205.242 18.8682 205.123 19.2236C205.005 19.5837 204.859 19.9277 204.686 20.2559L205.69 20.7754C206.101 20.4108 206.433 19.9619 206.688 19.4287C206.948 18.8955 207.078 18.3691 207.078 17.8496ZM218.077 14.2129V11.834C218.077 11.1914 218.002 10.6263 217.852 10.1387C217.701 9.64648 217.487 9.23405 217.209 8.90137C216.926 8.57324 216.585 8.32487 216.184 8.15625C215.783 7.98763 215.331 7.90332 214.83 7.90332C214.333 7.90332 213.884 7.98763 213.483 8.15625C213.087 8.32487 212.75 8.57324 212.472 8.90137C212.189 9.23405 211.973 9.64648 211.822 10.1387C211.672 10.6263 211.597 11.1914 211.597 11.834V14.2129C211.597 14.8555 211.672 15.4229 211.822 15.915C211.977 16.4027 212.196 16.8105 212.479 17.1387C212.757 17.4714 213.096 17.722 213.497 17.8906C213.898 18.0592 214.347 18.1436 214.844 18.1436C215.345 18.1436 215.796 18.0592 216.197 17.8906C216.598 17.722 216.938 17.4714 217.216 17.1387C217.494 16.8105 217.706 16.4027 217.852 15.915C218.002 15.4229 218.077 14.8555 218.077 14.2129ZM213.511 13.3926C213.511 13.2513 213.511 13.1442 213.511 13.0713C213.511 12.9984 213.511 12.8525 213.511 12.6338V11.5332C213.511 11.1641 213.538 10.8451 213.593 10.5762C213.652 10.3073 213.741 10.0885 213.859 9.91992C213.969 9.76042 214.103 9.64193 214.263 9.56445C214.427 9.48242 214.616 9.44141 214.83 9.44141C215.021 9.44141 215.192 9.47331 215.343 9.53711C215.498 9.59635 215.628 9.68978 215.732 9.81738C215.869 9.97689 215.972 10.1911 216.04 10.46C216.113 10.7243 216.154 11.0433 216.163 11.417L213.511 13.3926ZM216.163 14.5C216.163 14.8691 216.133 15.1904 216.074 15.4639C216.02 15.7327 215.935 15.9538 215.821 16.127C215.712 16.291 215.575 16.4141 215.411 16.4961C215.247 16.5736 215.058 16.6123 214.844 16.6123C214.611 16.6123 214.411 16.5667 214.242 16.4756C214.074 16.3844 213.935 16.2454 213.825 16.0586C213.729 15.9036 213.654 15.71 213.6 15.4775C213.549 15.2451 213.52 14.9785 213.511 14.6777L216.163 12.709C216.163 12.8411 216.163 12.9437 216.163 13.0166C216.163 13.085 216.163 13.1943 216.163 13.3447V14.5ZM223.895 17.8496L223.901 16.3389H222.117V17.9385C222.117 18.4398 222.058 18.8682 221.939 19.2236C221.821 19.5837 221.675 19.9277 221.502 20.2559L222.507 20.7754C222.917 20.4108 223.25 19.9619 223.505 19.4287C223.765 18.8955 223.895 18.3691 223.895 17.8496ZM234.894 14.2129V11.834C234.894 11.1914 234.818 10.6263 234.668 10.1387C234.518 9.64648 234.303 9.23405 234.025 8.90137C233.743 8.57324 233.401 8.32487 233 8.15625C232.599 7.98763 232.148 7.90332 231.646 7.90332C231.15 7.90332 230.701 7.98763 230.3 8.15625C229.903 8.32487 229.566 8.57324 229.288 8.90137C229.006 9.23405 228.789 9.64648 228.639 10.1387C228.488 10.6263 228.413 11.1914 228.413 11.834V14.2129C228.413 14.8555 228.488 15.4229 228.639 15.915C228.794 16.4027 229.012 16.8105 229.295 17.1387C229.573 17.4714 229.912 17.722 230.313 17.8906C230.715 18.0592 231.163 18.1436 231.66 18.1436C232.161 18.1436 232.613 18.0592 233.014 17.8906C233.415 17.722 233.754 17.4714 234.032 17.1387C234.31 16.8105 234.522 16.4027 234.668 15.915C234.818 15.4229 234.894 14.8555 234.894 14.2129ZM230.327 13.3926C230.327 13.2513 230.327 13.1442 230.327 13.0713C230.327 12.9984 230.327 12.8525 230.327 12.6338V11.5332C230.327 11.1641 230.354 10.8451 230.409 10.5762C230.468 10.3073 230.557 10.0885 230.676 9.91992C230.785 9.76042 230.92 9.64193 231.079 9.56445C231.243 9.48242 231.432 9.44141 231.646 9.44141C231.838 9.44141 232.009 9.47331 232.159 9.53711C232.314 9.59635 232.444 9.68978 232.549 9.81738C232.686 9.97689 232.788 10.1911 232.856 10.46C232.929 10.7243 232.97 11.0433 232.979 11.417L230.327 13.3926ZM232.979 14.5C232.979 14.8691 232.95 15.1904 232.891 15.4639C232.836 15.7327 232.752 15.9538 232.638 16.127C232.528 16.291 232.392 16.4141 232.228 16.4961C232.063 16.5736 231.874 16.6123 231.66 16.6123C231.428 16.6123 231.227 16.5667 231.059 16.4756C230.89 16.3844 230.751 16.2454 230.642 16.0586C230.546 15.9036 230.471 15.71 230.416 15.4775C230.366 15.2451 230.336 14.9785 230.327 14.6777L232.979 12.709C232.979 12.8411 232.979 12.9437 232.979 13.0166C232.979 13.085 232.979 13.1943 232.979 13.3447V14.5Z" fill="black"/>
<rect x="160" y="36" width="122" height="28" rx="10" fill="#E5E5E5"/>
<path d="M184.444 50.2129V47.834C184.444 47.1914 184.369 46.6263 184.219 46.1387C184.068 45.6465 183.854 45.234 183.576 44.9014C183.294 44.5732 182.952 44.3249 182.551 44.1562C182.15 43.9876 181.699 43.9033 181.197 43.9033C180.701 43.9033 180.252 43.9876 179.851 44.1562C179.454 44.3249 179.117 44.5732 178.839 44.9014C178.556 45.234 178.34 45.6465 178.189 46.1387C178.039 46.6263 177.964 47.1914 177.964 47.834V50.2129C177.964 50.8555 178.039 51.4229 178.189 51.915C178.344 52.4027 178.563 52.8105 178.846 53.1387C179.124 53.4714 179.463 53.722 179.864 53.8906C180.265 54.0592 180.714 54.1436 181.211 54.1436C181.712 54.1436 182.163 54.0592 182.564 53.8906C182.965 53.722 183.305 53.4714 183.583 53.1387C183.861 52.8105 184.073 52.4027 184.219 51.915C184.369 51.4229 184.444 50.8555 184.444 50.2129ZM179.878 49.3926C179.878 49.2513 179.878 49.1442 179.878 49.0713C179.878 48.9984 179.878 48.8525 179.878 48.6338V47.5332C179.878 47.1641 179.905 46.8451 179.96 46.5762C180.019 46.3073 180.108 46.0885 180.227 45.9199C180.336 45.7604 180.47 45.6419 180.63 45.5645C180.794 45.4824 180.983 45.4414 181.197 45.4414C181.389 45.4414 181.56 45.4733 181.71 45.5371C181.865 45.5964 181.995 45.6898 182.1 45.8174C182.236 45.9769 182.339 46.1911 182.407 46.46C182.48 46.7243 182.521 47.0433 182.53 47.417L179.878 49.3926ZM182.53 50.5C182.53 50.8691 182.501 51.1904 182.441 51.4639C182.387 51.7327 182.302 51.9538 182.188 52.127C182.079 52.291 181.942 52.4141 181.778 52.4961C181.614 52.5736 181.425 52.6123 181.211 52.6123C180.979 52.6123 180.778 52.5667 180.609 52.4756C180.441 52.3844 180.302 52.2454 180.192 52.0586C180.097 51.9036 180.021 51.71 179.967 51.4775C179.917 51.2451 179.887 50.9785 179.878 50.6777L182.53 48.709C182.53 48.8411 182.53 48.9437 182.53 49.0166C182.53 49.085 182.53 49.1943 182.53 49.3447V50.5ZM190.262 53.8496L190.269 52.3389H188.484V53.9385C188.484 54.4398 188.425 54.8682 188.307 55.2236C188.188 55.5837 188.042 55.9277 187.869 56.2559L188.874 56.7754C189.284 56.4108 189.617 55.9619 189.872 55.4287C190.132 54.8955 190.262 54.3691 190.262 53.8496ZM199.436 54V44.0469H199.333L194.999 45.6123V47.2666L197.515 46.3643V54H199.436ZM207.078 53.8496L207.085 52.3389H205.301V53.9385C205.301 54.4398 205.242 54.8682 205.123 55.2236C205.005 55.5837 204.859 55.9277 204.686 56.2559L205.69 56.7754C206.101 56.4108 206.433 55.9619 206.688 55.4287C206.948 54.8955 207.078 54.3691 207.078 53.8496ZM218.077 50.2129V47.834C218.077 47.1914 218.002 46.6263 217.852 46.1387C217.701 45.6465 217.487 45.234 217.209 44.9014C216.926 44.5732 216.585 44.3249 216.184 44.1562C215.783 43.9876 215.331 43.9033 214.83 43.9033C214.333 43.9033 213.884 43.9876 213.483 44.1562C213.087 44.3249 212.75 44.5732 212.472 44.9014C212.189 45.234 211.973 45.6465 211.822 46.1387C211.672 46.6263 211.597 47.1914 211.597 47.834V50.2129C211.597 50.8555 211.672 51.4229 211.822 51.915C211.977 52.4027 212.196 52.8105 212.479 53.1387C212.757 53.4714 213.096 53.722 213.497 53.8906C213.898 54.0592 214.347 54.1436 214.844 54.1436C215.345 54.1436 215.796 54.0592 216.197 53.8906C216.598 53.722 216.938 53.4714 217.216 53.1387C217.494 52.8105 217.706 52.4027 217.852 51.915C218.002 51.4229 218.077 50.8555 218.077 50.2129ZM213.511 49.3926C213.511 49.2513 213.511 49.1442 213.511 49.0713C213.511 48.9984 213.511 48.8525 213.511 48.6338V47.5332C213.511 47.1641 213.538 46.8451 213.593 46.5762C213.652 46.3073 213.741 46.0885 213.859 45.9199C213.969 45.7604 214.103 45.6419 214.263 45.5645C214.427 45.4824 214.616 45.4414 214.83 45.4414C215.021 45.4414 215.192 45.4733 215.343 45.5371C215.498 45.5964 215.628 45.6898 215.732 45.8174C215.869 45.9769 215.972 46.1911 216.04 46.46C216.113 46.7243 216.154 47.0433 216.163 47.417L213.511 49.3926ZM216.163 50.5C216.163 50.8691 216.133 51.1904 216.074 51.4639C216.02 51.7327 215.935 51.9538 215.821 52.127C215.712 52.291 215.575 52.4141 215.411 52.4961C215.247 52.5736 215.058 52.6123 214.844 52.6123C214.611 52.6123 214.411 52.5667 214.242 52.4756C214.074 52.3844 213.935 52.2454 213.825 52.0586C213.729 51.9036 213.654 51.71 213.6 51.4775C213.549 51.2451 213.52 50.9785 213.511 50.6777L216.163 48.709C216.163 48.8411 216.163 48.9437 216.163 49.0166C216.163 49.085 216.163 49.1943 216.163 49.3447V50.5ZM223.895 53.8496L223.901 52.3389H222.117V53.9385C222.117 54.4398 222.058 54.8682 221.939 55.2236C221.821 55.5837 221.675 55.9277 221.502 56.2559L222.507 56.7754C222.917 56.4108 223.25 55.9619 223.505 55.4287C223.765 54.8955 223.895 54.3691 223.895 53.8496ZM234.894 50.2129V47.834C234.894 47.1914 234.818 46.6263 234.668 46.1387C234.518 45.6465 234.303 45.234 234.025 44.9014C233.743 44.5732 233.401 44.3249 233 44.1562C232.599 43.9876 232.148 43.9033 231.646 43.9033C231.15 43.9033 230.701 43.9876 230.3 44.1562C229.903 44.3249 229.566 44.5732 229.288 44.9014C229.006 45.234 228.789 45.6465 228.639 46.1387C228.488 46.6263 228.413 47.1914 228.413 47.834V50.2129C228.413 50.8555 228.488 51.4229 228.639 51.915C228.794 52.4027 229.012 52.8105 229.295 53.1387C229.573 53.4714 229.912 53.722 230.313 53.8906C230.715 54.0592 231.163 54.1436 231.66 54.1436C232.161 54.1436 232.613 54.0592 233.014 53.8906C233.415 53.722 233.754 53.4714 234.032 53.1387C234.31 52.8105 234.522 52.4027 234.668 51.915C234.818 51.4229 234.894 50.8555 234.894 50.2129ZM230.327 49.3926C230.327 49.2513 230.327 49.1442 230.327 49.0713C230.327 48.9984 230.327 48.8525 230.327 48.6338V47.5332C230.327 47.1641 230.354 46.8451 230.409 46.5762C230.468 46.3073 230.557 46.0885 230.676 45.9199C230.785 45.7604 230.92 45.6419 231.079 45.5645C231.243 45.4824 231.432 45.4414 231.646 45.4414C231.838 45.4414 232.009 45.4733 232.159 45.5371C232.314 45.5964 232.444 45.6898 232.549 45.8174C232.686 45.9769 232.788 46.1911 232.856 46.46C232.929 46.7243 232.97 47.0433 232.979 47.417L230.327 49.3926ZM232.979 50.5C232.979 50.8691 232.95 51.1904 232.891 51.4639C232.836 51.7327 232.752 51.9538 232.638 52.127C232.528 52.291 232.392 52.4141 232.228 52.4961C232.063 52.5736 231.874 52.6123 231.66 52.6123C231.428 52.6123 231.227 52.5667 231.059 52.4756C230.89 52.3844 230.751 52.2454 230.642 52.0586C230.546 51.9036 230.471 51.71 230.416 51.4775C230.366 51.2451 230.336 50.9785 230.327 50.6777L232.979 48.709C232.979 48.8411 232.979 48.9437 232.979 49.0166C232.979 49.085 232.979 49.1943 232.979 49.3447V50.5Z" fill="black"/>
<rect x="160" y="180" width="122" height="28" rx="10" fill="#E5E5E5"/>
<path d="M184.444 194.213V191.834C184.444 191.191 184.369 190.626 184.219 190.139C184.068 189.646 183.854 189.234 183.576 188.901C183.294 188.573 182.952 188.325 182.551 188.156C182.15 187.988 181.699 187.903 181.197 187.903C180.701 187.903 180.252 187.988 179.851 188.156C179.454 188.325 179.117 188.573 178.839 188.901C178.556 189.234 178.34 189.646 178.189 190.139C178.039 190.626 177.964 191.191 177.964 191.834V194.213C177.964 194.855 178.039 195.423 178.189 195.915C178.344 196.403 178.563 196.811 178.846 197.139C179.124 197.471 179.463 197.722 179.864 197.891C180.265 198.059 180.714 198.144 181.211 198.144C181.712 198.144 182.163 198.059 182.564 197.891C182.965 197.722 183.305 197.471 183.583 197.139C183.861 196.811 184.073 196.403 184.219 195.915C184.369 195.423 184.444 194.855 184.444 194.213ZM179.878 193.393C179.878 193.251 179.878 193.144 179.878 193.071C179.878 192.998 179.878 192.853 179.878 192.634V191.533C179.878 191.164 179.905 190.845 179.96 190.576C180.019 190.307 180.108 190.089 180.227 189.92C180.336 189.76 180.47 189.642 180.63 189.564C180.794 189.482 180.983 189.441 181.197 189.441C181.389 189.441 181.56 189.473 181.71 189.537C181.865 189.596 181.995 189.69 182.1 189.817C182.236 189.977 182.339 190.191 182.407 190.46C182.48 190.724 182.521 191.043 182.53 191.417L179.878 193.393ZM182.53 194.5C182.53 194.869 182.501 195.19 182.441 195.464C182.387 195.733 182.302 195.954 182.188 196.127C182.079 196.291 181.942 196.414 181.778 196.496C181.614 196.574 181.425 196.612 181.211 196.612C180.979 196.612 180.778 196.567 180.609 196.476C180.441 196.384 180.302 196.245 180.192 196.059C180.097 195.904 180.021 195.71 179.967 195.478C179.917 195.245 179.887 194.979 179.878 194.678L182.53 192.709C182.53 192.841 182.53 192.944 182.53 193.017C182.53 193.085 182.53 193.194 182.53 193.345V194.5ZM190.262 197.85L190.269 196.339H188.484V197.938C188.484 198.44 188.425 198.868 188.307 199.224C188.188 199.584 188.042 199.928 187.869 200.256L188.874 200.775C189.284 200.411 189.617 199.962 189.872 199.429C190.132 198.896 190.262 198.369 190.262 197.85ZM201.261 194.213V191.834C201.261 191.191 201.186 190.626 201.035 190.139C200.885 189.646 200.671 189.234 200.393 188.901C200.11 188.573 199.768 188.325 199.367 188.156C198.966 187.988 198.515 187.903 198.014 187.903C197.517 187.903 197.068 187.988 196.667 188.156C196.271 188.325 195.933 188.573 195.655 188.901C195.373 189.234 195.156 189.646 195.006 190.139C194.855 190.626 194.78 191.191 194.78 191.834V194.213C194.78 194.855 194.855 195.423 195.006 195.915C195.161 196.403 195.38 196.811 195.662 197.139C195.94 197.471 196.28 197.722 196.681 197.891C197.082 198.059 197.531 198.144 198.027 198.144C198.529 198.144 198.98 198.059 199.381 197.891C199.782 197.722 200.121 197.471 200.399 197.139C200.677 196.811 200.889 196.403 201.035 195.915C201.186 195.423 201.261 194.855 201.261 194.213ZM196.694 193.393C196.694 193.251 196.694 193.144 196.694 193.071C196.694 192.998 196.694 192.853 196.694 192.634V191.533C196.694 191.164 196.722 190.845 196.776 190.576C196.836 190.307 196.924 190.089 197.043 189.92C197.152 189.76 197.287 189.642 197.446 189.564C197.61 189.482 197.799 189.441 198.014 189.441C198.205 189.441 198.376 189.473 198.526 189.537C198.681 189.596 198.811 189.69 198.916 189.817C199.053 189.977 199.155 190.191 199.224 190.46C199.297 190.724 199.338 191.043 199.347 191.417L196.694 193.393ZM199.347 194.5C199.347 194.869 199.317 195.19 199.258 195.464C199.203 195.733 199.119 195.954 199.005 196.127C198.896 196.291 198.759 196.414 198.595 196.496C198.431 196.574 198.242 196.612 198.027 196.612C197.795 196.612 197.594 196.567 197.426 196.476C197.257 196.384 197.118 196.245 197.009 196.059C196.913 195.904 196.838 195.71 196.783 195.478C196.733 195.245 196.703 194.979 196.694 194.678L199.347 192.709C199.347 192.841 199.347 192.944 199.347 193.017C199.347 193.085 199.347 193.194 199.347 193.345V194.5ZM207.078 197.85L207.085 196.339H205.301V197.938C205.301 198.44 205.242 198.868 205.123 199.224C205.005 199.584 204.859 199.928 204.686 200.256L205.69 200.775C206.101 200.411 206.433 199.962 206.688 199.429C206.948 198.896 207.078 198.369 207.078 197.85ZM218.077 194.213V191.834C218.077 191.191 218.002 190.626 217.852 190.139C217.701 189.646 217.487 189.234 217.209 188.901C216.926 188.573 216.585 188.325 216.184 188.156C215.783 187.988 215.331 187.903 214.83 187.903C214.333 187.903 213.884 187.988 213.483 188.156C213.087 188.325 212.75 188.573 212.472 188.901C212.189 189.234 211.973 189.646 211.822 190.139C211.672 190.626 211.597 191.191 211.597 191.834V194.213C211.597 194.855 211.672 195.423 211.822 195.915C211.977 196.403 212.196 196.811 212.479 197.139C212.757 197.471 213.096 197.722 213.497 197.891C213.898 198.059 214.347 198.144 214.844 198.144C215.345 198.144 215.796 198.059 216.197 197.891C216.598 197.722 216.938 197.471 217.216 197.139C217.494 196.811 217.706 196.403 217.852 195.915C218.002 195.423 218.077 194.855 218.077 194.213ZM213.511 193.393C213.511 193.251 213.511 193.144 213.511 193.071C213.511 192.998 213.511 192.853 213.511 192.634V191.533C213.511 191.164 213.538 190.845 213.593 190.576C213.652 190.307 213.741 190.089 213.859 189.92C213.969 189.76 214.103 189.642 214.263 189.564C214.427 189.482 214.616 189.441 214.83 189.441C215.021 189.441 215.192 189.473 215.343 189.537C215.498 189.596 215.628 189.69 215.732 189.817C215.869 189.977 215.972 190.191 216.04 190.46C216.113 190.724 216.154 191.043 216.163 191.417L213.511 193.393ZM216.163 194.5C216.163 194.869 216.133 195.19 216.074 195.464C216.02 195.733 215.935 195.954 215.821 196.127C215.712 196.291 215.575 196.414 215.411 196.496C215.247 196.574 215.058 196.612 214.844 196.612C214.611 196.612 214.411 196.567 214.242 196.476C214.074 196.384 213.935 196.245 213.825 196.059C213.729 195.904 213.654 195.71 213.6 195.478C213.549 195.245 213.52 194.979 213.511 194.678L216.163 192.709C216.163 192.841 216.163 192.944 216.163 193.017C216.163 193.085 216.163 193.194 216.163 193.345V194.5ZM223.895 197.85L223.901 196.339H222.117V197.938C222.117 198.44 222.058 198.868 221.939 199.224C221.821 199.584 221.675 199.928 221.502 200.256L222.507 200.775C222.917 200.411 223.25 199.962 223.505 199.429C223.765 198.896 223.895 198.369 223.895 197.85ZM234.894 194.213V191.834C234.894 191.191 234.818 190.626 234.668 190.139C234.518 189.646 234.303 189.234 234.025 188.901C233.743 188.573 233.401 188.325 233 188.156C232.599 187.988 232.148 187.903 231.646 187.903C231.15 187.903 230.701 187.988 230.3 188.156C229.903 188.325 229.566 188.573 229.288 188.901C229.006 189.234 228.789 189.646 228.639 190.139C228.488 190.626 228.413 191.191 228.413 191.834V194.213C228.413 194.855 228.488 195.423 228.639 195.915C228.794 196.403 229.012 196.811 229.295 197.139C229.573 197.471 229.912 197.722 230.313 197.891C230.715 198.059 231.163 198.144 231.66 198.144C232.161 198.144 232.613 198.059 233.014 197.891C233.415 197.722 233.754 197.471 234.032 197.139C234.31 196.811 234.522 196.403 234.668 195.915C234.818 195.423 234.894 194.855 234.894 194.213ZM230.327 193.393C230.327 193.251 230.327 193.144 230.327 193.071C230.327 192.998 230.327 192.853 230.327 192.634V191.533C230.327 191.164 230.354 190.845 230.409 190.576C230.468 190.307 230.557 190.089 230.676 189.92C230.785 189.76 230.92 189.642 231.079 189.564C231.243 189.482 231.432 189.441 231.646 189.441C231.838 189.441 232.009 189.473 232.159 189.537C232.314 189.596 232.444 189.69 232.549 189.817C232.686 189.977 232.788 190.191 232.856 190.46C232.929 190.724 232.97 191.043 232.979 191.417L230.327 193.393ZM232.979 194.5C232.979 194.869 232.95 195.19 232.891 195.464C232.836 195.733 232.752 195.954 232.638 196.127C232.528 196.291 232.392 196.414 232.228 196.496C232.063 196.574 231.874 196.612 231.66 196.612C231.428 196.612 231.227 196.567 231.059 196.476C230.89 196.384 230.751 196.245 230.642 196.059C230.546 195.904 230.471 195.71 230.416 195.478C230.366 195.245 230.336 194.979 230.327 194.678L232.979 192.709C232.979 192.841 232.979 192.944 232.979 193.017C232.979 193.085 232.979 193.194 232.979 193.345V194.5Z" fill="black"/>
<rect x="160" y="144" width="122" height="28" rx="10" fill="#E5E5E5"/>
<path d="M184.444 158.213V155.834C184.444 155.191 184.369 154.626 184.219 154.139C184.068 153.646 183.854 153.234 183.576 152.901C183.294 152.573 182.952 152.325 182.551 152.156C182.15 151.988 181.699 151.903 181.197 151.903C180.701 151.903 180.252 151.988 179.851 152.156C179.454 152.325 179.117 152.573 178.839 152.901C178.556 153.234 178.34 153.646 178.189 154.139C178.039 154.626 177.964 155.191 177.964 155.834V158.213C177.964 158.855 178.039 159.423 178.189 159.915C178.344 160.403 178.563 160.811 178.846 161.139C179.124 161.471 179.463 161.722 179.864 161.891C180.265 162.059 180.714 162.144 181.211 162.144C181.712 162.144 182.163 162.059 182.564 161.891C182.965 161.722 183.305 161.471 183.583 161.139C183.861 160.811 184.073 160.403 184.219 159.915C184.369 159.423 184.444 158.855 184.444 158.213ZM179.878 157.393C179.878 157.251 179.878 157.144 179.878 157.071C179.878 156.998 179.878 156.853 179.878 156.634V155.533C179.878 155.164 179.905 154.845 179.96 154.576C180.019 154.307 180.108 154.089 180.227 153.92C180.336 153.76 180.47 153.642 180.63 153.564C180.794 153.482 180.983 153.441 181.197 153.441C181.389 153.441 181.56 153.473 181.71 153.537C181.865 153.596 181.995 153.69 182.1 153.817C182.236 153.977 182.339 154.191 182.407 154.46C182.48 154.724 182.521 155.043 182.53 155.417L179.878 157.393ZM182.53 158.5C182.53 158.869 182.501 159.19 182.441 159.464C182.387 159.733 182.302 159.954 182.188 160.127C182.079 160.291 181.942 160.414 181.778 160.496C181.614 160.574 181.425 160.612 181.211 160.612C180.979 160.612 180.778 160.567 180.609 160.476C180.441 160.384 180.302 160.245 180.192 160.059C180.097 159.904 180.021 159.71 179.967 159.478C179.917 159.245 179.887 158.979 179.878 158.678L182.53 156.709C182.53 156.841 182.53 156.944 182.53 157.017C182.53 157.085 182.53 157.194 182.53 157.345V158.5ZM190.262 161.85L190.269 160.339H188.484V161.938C188.484 162.44 188.425 162.868 188.307 163.224C188.188 163.584 188.042 163.928 187.869 164.256L188.874 164.775C189.284 164.411 189.617 163.962 189.872 163.429C190.132 162.896 190.262 162.369 190.262 161.85ZM201.261 158.213V155.834C201.261 155.191 201.186 154.626 201.035 154.139C200.885 153.646 200.671 153.234 200.393 152.901C200.11 152.573 199.768 152.325 199.367 152.156C198.966 151.988 198.515 151.903 198.014 151.903C197.517 151.903 197.068 151.988 196.667 152.156C196.271 152.325 195.933 152.573 195.655 152.901C195.373 153.234 195.156 153.646 195.006 154.139C194.855 154.626 194.78 155.191 194.78 155.834V158.213C194.78 158.855 194.855 159.423 195.006 159.915C195.161 160.403 195.38 160.811 195.662 161.139C195.94 161.471 196.28 161.722 196.681 161.891C197.082 162.059 197.531 162.144 198.027 162.144C198.529 162.144 198.98 162.059 199.381 161.891C199.782 161.722 200.121 161.471 200.399 161.139C200.677 160.811 200.889 160.403 201.035 159.915C201.186 159.423 201.261 158.855 201.261 158.213ZM196.694 157.393C196.694 157.251 196.694 157.144 196.694 157.071C196.694 156.998 196.694 156.853 196.694 156.634V155.533C196.694 155.164 196.722 154.845 196.776 154.576C196.836 154.307 196.924 154.089 197.043 153.92C197.152 153.76 197.287 153.642 197.446 153.564C197.61 153.482 197.799 153.441 198.014 153.441C198.205 153.441 198.376 153.473 198.526 153.537C198.681 153.596 198.811 153.69 198.916 153.817C199.053 153.977 199.155 154.191 199.224 154.46C199.297 154.724 199.338 155.043 199.347 155.417L196.694 157.393ZM199.347 158.5C199.347 158.869 199.317 159.19 199.258 159.464C199.203 159.733 199.119 159.954 199.005 160.127C198.896 160.291 198.759 160.414 198.595 160.496C198.431 160.574 198.242 160.612 198.027 160.612C197.795 160.612 197.594 160.567 197.426 160.476C197.257 160.384 197.118 160.245 197.009 160.059C196.913 159.904 196.838 159.71 196.783 159.478C196.733 159.245 196.703 158.979 196.694 158.678L199.347 156.709C199.347 156.841 199.347 156.944 199.347 157.017C199.347 157.085 199.347 157.194 199.347 157.345V158.5ZM207.078 161.85L207.085 160.339H205.301V161.938C205.301 162.44 205.242 162.868 205.123 163.224C205.005 163.584 204.859 163.928 204.686 164.256L205.69 164.775C206.101 164.411 206.433 163.962 206.688 163.429C206.948 162.896 207.078 162.369 207.078 161.85ZM218.077 158.213V155.834C218.077 155.191 218.002 154.626 217.852 154.139C217.701 153.646 217.487 153.234 217.209 152.901C216.926 152.573 216.585 152.325 216.184 152.156C215.783 151.988 215.331 151.903 214.83 151.903C214.333 151.903 213.884 151.988 213.483 152.156C213.087 152.325 212.75 152.573 212.472 152.901C212.189 153.234 211.973 153.646 211.822 154.139C211.672 154.626 211.597 155.191 211.597 155.834V158.213C211.597 158.855 211.672 159.423 211.822 159.915C211.977 160.403 212.196 160.811 212.479 161.139C212.757 161.471 213.096 161.722 213.497 161.891C213.898 162.059 214.347 162.144 214.844 162.144C215.345 162.144 215.796 162.059 216.197 161.891C216.598 161.722 216.938 161.471 217.216 161.139C217.494 160.811 217.706 160.403 217.852 159.915C218.002 159.423 218.077 158.855 218.077 158.213ZM213.511 157.393C213.511 157.251 213.511 157.144 213.511 157.071C213.511 156.998 213.511 156.853 213.511 156.634V155.533C213.511 155.164 213.538 154.845 213.593 154.576C213.652 154.307 213.741 154.089 213.859 153.92C213.969 153.76 214.103 153.642 214.263 153.564C214.427 153.482 214.616 153.441 214.83 153.441C215.021 153.441 215.192 153.473 215.343 153.537C215.498 153.596 215.628 153.69 215.732 153.817C215.869 153.977 215.972 154.191 216.04 154.46C216.113 154.724 216.154 155.043 216.163 155.417L213.511 157.393ZM216.163 158.5C216.163 158.869 216.133 159.19 216.074 159.464C216.02 159.733 215.935 159.954 215.821 160.127C215.712 160.291 215.575 160.414 215.411 160.496C215.247 160.574 215.058 160.612 214.844 160.612C214.611 160.612 214.411 160.567 214.242 160.476C214.074 160.384 213.935 160.245 213.825 160.059C213.729 159.904 213.654 159.71 213.6 159.478C213.549 159.245 213.52 158.979 213.511 158.678L216.163 156.709C216.163 156.841 216.163 156.944 216.163 157.017C216.163 157.085 216.163 157.194 216.163 157.345V158.5ZM223.895 161.85L223.901 160.339H222.117V161.938C222.117 162.44 222.058 162.868 221.939 163.224C221.821 163.584 221.675 163.928 221.502 164.256L222.507 164.775C222.917 164.411 223.25 163.962 223.505 163.429C223.765 162.896 223.895 162.369 223.895 161.85ZM233.068 162V152.047H232.966L228.632 153.612V155.267L231.147 154.364V162H233.068Z" fill="black"/>
<rect x="160" y="108" width="122" height="28" rx="10" fill="#E5E5E5"/>
<path d="M184.444 122.213V119.834C184.444 119.191 184.369 118.626 184.219 118.139C184.068 117.646 183.854 117.234 183.576 116.901C183.294 116.573 182.952 116.325 182.551 116.156C182.15 115.988 181.699 115.903 181.197 115.903C180.701 115.903 180.252 115.988 179.851 116.156C179.454 116.325 179.117 116.573 178.839 116.901C178.556 117.234 178.34 117.646 178.189 118.139C178.039 118.626 177.964 119.191 177.964 119.834V122.213C177.964 122.855 178.039 123.423 178.189 123.915C178.344 124.403 178.563 124.811 178.846 125.139C179.124 125.471 179.463 125.722 179.864 125.891C180.265 126.059 180.714 126.144 181.211 126.144C181.712 126.144 182.163 126.059 182.564 125.891C182.965 125.722 183.305 125.471 183.583 125.139C183.861 124.811 184.073 124.403 184.219 123.915C184.369 123.423 184.444 122.855 184.444 122.213ZM179.878 121.393C179.878 121.251 179.878 121.144 179.878 121.071C179.878 120.998 179.878 120.853 179.878 120.634V119.533C179.878 119.164 179.905 118.845 179.96 118.576C180.019 118.307 180.108 118.089 180.227 117.92C180.336 117.76 180.47 117.642 180.63 117.564C180.794 117.482 180.983 117.441 181.197 117.441C181.389 117.441 181.56 117.473 181.71 117.537C181.865 117.596 181.995 117.69 182.1 117.817C182.236 117.977 182.339 118.191 182.407 118.46C182.48 118.724 182.521 119.043 182.53 119.417L179.878 121.393ZM182.53 122.5C182.53 122.869 182.501 123.19 182.441 123.464C182.387 123.733 182.302 123.954 182.188 124.127C182.079 124.291 181.942 124.414 181.778 124.496C181.614 124.574 181.425 124.612 181.211 124.612C180.979 124.612 180.778 124.567 180.609 124.476C180.441 124.384 180.302 124.245 180.192 124.059C180.097 123.904 180.021 123.71 179.967 123.478C179.917 123.245 179.887 122.979 179.878 122.678L182.53 120.709C182.53 120.841 182.53 120.944 182.53 121.017C182.53 121.085 182.53 121.194 182.53 121.345V122.5ZM190.262 125.85L190.269 124.339H188.484V125.938C188.484 126.44 188.425 126.868 188.307 127.224C188.188 127.584 188.042 127.928 187.869 128.256L188.874 128.775C189.284 128.411 189.617 127.962 189.872 127.429C190.132 126.896 190.262 126.369 190.262 125.85ZM201.261 122.213V119.834C201.261 119.191 201.186 118.626 201.035 118.139C200.885 117.646 200.671 117.234 200.393 116.901C200.11 116.573 199.768 116.325 199.367 116.156C198.966 115.988 198.515 115.903 198.014 115.903C197.517 115.903 197.068 115.988 196.667 116.156C196.271 116.325 195.933 116.573 195.655 116.901C195.373 117.234 195.156 117.646 195.006 118.139C194.855 118.626 194.78 119.191 194.78 119.834V122.213C194.78 122.855 194.855 123.423 195.006 123.915C195.161 124.403 195.38 124.811 195.662 125.139C195.94 125.471 196.28 125.722 196.681 125.891C197.082 126.059 197.531 126.144 198.027 126.144C198.529 126.144 198.98 126.059 199.381 125.891C199.782 125.722 200.121 125.471 200.399 125.139C200.677 124.811 200.889 124.403 201.035 123.915C201.186 123.423 201.261 122.855 201.261 122.213ZM196.694 121.393C196.694 121.251 196.694 121.144 196.694 121.071C196.694 120.998 196.694 120.853 196.694 120.634V119.533C196.694 119.164 196.722 118.845 196.776 118.576C196.836 118.307 196.924 118.089 197.043 117.92C197.152 117.76 197.287 117.642 197.446 117.564C197.61 117.482 197.799 117.441 198.014 117.441C198.205 117.441 198.376 117.473 198.526 117.537C198.681 117.596 198.811 117.69 198.916 117.817C199.053 117.977 199.155 118.191 199.224 118.46C199.297 118.724 199.338 119.043 199.347 119.417L196.694 121.393ZM199.347 122.5C199.347 122.869 199.317 123.19 199.258 123.464C199.203 123.733 199.119 123.954 199.005 124.127C198.896 124.291 198.759 124.414 198.595 124.496C198.431 124.574 198.242 124.612 198.027 124.612C197.795 124.612 197.594 124.567 197.426 124.476C197.257 124.384 197.118 124.245 197.009 124.059C196.913 123.904 196.838 123.71 196.783 123.478C196.733 123.245 196.703 122.979 196.694 122.678L199.347 120.709C199.347 120.841 199.347 120.944 199.347 121.017C199.347 121.085 199.347 121.194 199.347 121.345V122.5ZM207.078 125.85L207.085 124.339H205.301V125.938C205.301 126.44 205.242 126.868 205.123 127.224C205.005 127.584 204.859 127.928 204.686 128.256L205.69 128.775C206.101 128.411 206.433 127.962 206.688 127.429C206.948 126.896 207.078 126.369 207.078 125.85ZM216.252 126V116.047H216.149L211.815 117.612V119.267L214.331 118.364V126H216.252ZM223.895 125.85L223.901 124.339H222.117V125.938C222.117 126.44 222.058 126.868 221.939 127.224C221.821 127.584 221.675 127.928 221.502 128.256L222.507 128.775C222.917 128.411 223.25 127.962 223.505 127.429C223.765 126.896 223.895 126.369 223.895 125.85ZM234.894 122.213V119.834C234.894 119.191 234.818 118.626 234.668 118.139C234.518 117.646 234.303 117.234 234.025 116.901C233.743 116.573 233.401 116.325 233 116.156C232.599 115.988 232.148 115.903 231.646 115.903C231.15 115.903 230.701 115.988 230.3 116.156C229.903 116.325 229.566 116.573 229.288 116.901C229.006 117.234 228.789 117.646 228.639 118.139C228.488 118.626 228.413 119.191 228.413 119.834V122.213C228.413 122.855 228.488 123.423 228.639 123.915C228.794 124.403 229.012 124.811 229.295 125.139C229.573 125.471 229.912 125.722 230.313 125.891C230.715 126.059 231.163 126.144 231.66 126.144C232.161 126.144 232.613 126.059 233.014 125.891C233.415 125.722 233.754 125.471 234.032 125.139C234.31 124.811 234.522 124.403 234.668 123.915C234.818 123.423 234.894 122.855 234.894 122.213ZM230.327 121.393C230.327 121.251 230.327 121.144 230.327 121.071C230.327 120.998 230.327 120.853 230.327 120.634V119.533C230.327 119.164 230.354 118.845 230.409 118.576C230.468 118.307 230.557 118.089 230.676 117.92C230.785 117.76 230.92 117.642 231.079 117.564C231.243 117.482 231.432 117.441 231.646 117.441C231.838 117.441 232.009 117.473 232.159 117.537C232.314 117.596 232.444 117.69 232.549 117.817C232.686 117.977 232.788 118.191 232.856 118.46C232.929 118.724 232.97 119.043 232.979 119.417L230.327 121.393ZM232.979 122.5C232.979 122.869 232.95 123.19 232.891 123.464C232.836 123.733 232.752 123.954 232.638 124.127C232.528 124.291 232.392 124.414 232.228 124.496C232.063 124.574 231.874 124.612 231.66 124.612C231.428 124.612 231.227 124.567 231.059 124.476C230.89 124.384 230.751 124.245 230.642 124.059C230.546 123.904 230.471 123.71 230.416 123.478C230.366 123.245 230.336 122.979 230.327 122.678L232.979 120.709C232.979 120.841 232.979 120.944 232.979 121.017C232.979 121.085 232.979 121.194 232.979 121.345V122.5Z" fill="black"/>
<rect x="160" y="72" width="122" height="28" rx="10" fill="#E5E5E5"/>
<path d="M184.444 86.2129V83.834C184.444 83.1914 184.369 82.6263 184.219 82.1387C184.068 81.6465 183.854 81.234 183.576 80.9014C183.294 80.5732 182.952 80.3249 182.551 80.1562C182.15 79.9876 181.699 79.9033 181.197 79.9033C180.701 79.9033 180.252 79.9876 179.851 80.1562C179.454 80.3249 179.117 80.5732 178.839 80.9014C178.556 81.234 178.34 81.6465 178.189 82.1387C178.039 82.6263 177.964 83.1914 177.964 83.834V86.2129C177.964 86.8555 178.039 87.4229 178.189 87.915C178.344 88.4027 178.563 88.8105 178.846 89.1387C179.124 89.4714 179.463 89.722 179.864 89.8906C180.265 90.0592 180.714 90.1436 181.211 90.1436C181.712 90.1436 182.163 90.0592 182.564 89.8906C182.965 89.722 183.305 89.4714 183.583 89.1387C183.861 88.8105 184.073 88.4027 184.219 87.915C184.369 87.4229 184.444 86.8555 184.444 86.2129ZM179.878 85.3926C179.878 85.2513 179.878 85.1442 179.878 85.0713C179.878 84.9984 179.878 84.8525 179.878 84.6338V83.5332C179.878 83.1641 179.905 82.8451 179.96 82.5762C180.019 82.3073 180.108 82.0885 180.227 81.9199C180.336 81.7604 180.47 81.6419 180.63 81.5645C180.794 81.4824 180.983 81.4414 181.197 81.4414C181.389 81.4414 181.56 81.4733 181.71 81.5371C181.865 81.5964 181.995 81.6898 182.1 81.8174C182.236 81.9769 182.339 82.1911 182.407 82.46C182.48 82.7243 182.521 83.0433 182.53 83.417L179.878 85.3926ZM182.53 86.5C182.53 86.8691 182.501 87.1904 182.441 87.4639C182.387 87.7327 182.302 87.9538 182.188 88.127C182.079 88.291 181.942 88.4141 181.778 88.4961C181.614 88.5736 181.425 88.6123 181.211 88.6123C180.979 88.6123 180.778 88.5667 180.609 88.4756C180.441 88.3844 180.302 88.2454 180.192 88.0586C180.097 87.9036 180.021 87.71 179.967 87.4775C179.917 87.2451 179.887 86.9785 179.878 86.6777L182.53 84.709C182.53 84.8411 182.53 84.9437 182.53 85.0166C182.53 85.085 182.53 85.1943 182.53 85.3447V86.5ZM190.262 89.8496L190.269 88.3389H188.484V89.9385C188.484 90.4398 188.425 90.8682 188.307 91.2236C188.188 91.5837 188.042 91.9277 187.869 92.2559L188.874 92.7754C189.284 92.4108 189.617 91.9619 189.872 91.4287C190.132 90.8955 190.262 90.3691 190.262 89.8496ZM201.261 86.2129V83.834C201.261 83.1914 201.186 82.6263 201.035 82.1387C200.885 81.6465 200.671 81.234 200.393 80.9014C200.11 80.5732 199.768 80.3249 199.367 80.1562C198.966 79.9876 198.515 79.9033 198.014 79.9033C197.517 79.9033 197.068 79.9876 196.667 80.1562C196.271 80.3249 195.933 80.5732 195.655 80.9014C195.373 81.234 195.156 81.6465 195.006 82.1387C194.855 82.6263 194.78 83.1914 194.78 83.834V86.2129C194.78 86.8555 194.855 87.4229 195.006 87.915C195.161 88.4027 195.38 88.8105 195.662 89.1387C195.94 89.4714 196.28 89.722 196.681 89.8906C197.082 90.0592 197.531 90.1436 198.027 90.1436C198.529 90.1436 198.98 90.0592 199.381 89.8906C199.782 89.722 200.121 89.4714 200.399 89.1387C200.677 88.8105 200.889 88.4027 201.035 87.915C201.186 87.4229 201.261 86.8555 201.261 86.2129ZM196.694 85.3926C196.694 85.2513 196.694 85.1442 196.694 85.0713C196.694 84.9984 196.694 84.8525 196.694 84.6338V83.5332C196.694 83.1641 196.722 82.8451 196.776 82.5762C196.836 82.3073 196.924 82.0885 197.043 81.9199C197.152 81.7604 197.287 81.6419 197.446 81.5645C197.61 81.4824 197.799 81.4414 198.014 81.4414C198.205 81.4414 198.376 81.4733 198.526 81.5371C198.681 81.5964 198.811 81.6898 198.916 81.8174C199.053 81.9769 199.155 82.1911 199.224 82.46C199.297 82.7243 199.338 83.0433 199.347 83.417L196.694 85.3926ZM199.347 86.5C199.347 86.8691 199.317 87.1904 199.258 87.4639C199.203 87.7327 199.119 87.9538 199.005 88.127C198.896 88.291 198.759 88.4141 198.595 88.4961C198.431 88.5736 198.242 88.6123 198.027 88.6123C197.795 88.6123 197.594 88.5667 197.426 88.4756C197.257 88.3844 197.118 88.2454 197.009 88.0586C196.913 87.9036 196.838 87.71 196.783 87.4775C196.733 87.2451 196.703 86.9785 196.694 86.6777L199.347 84.709C199.347 84.8411 199.347 84.9437 199.347 85.0166C199.347 85.085 199.347 85.1943 199.347 85.3447V86.5ZM207.078 89.8496L207.085 88.3389H205.301V89.9385C205.301 90.4398 205.242 90.8682 205.123 91.2236C205.005 91.5837 204.859 91.9277 204.686 92.2559L205.69 92.7754C206.101 92.4108 206.433 91.9619 206.688 91.4287C206.948 90.8955 207.078 90.3691 207.078 89.8496ZM216.252 90V80.0469H216.149L211.815 81.6123V83.2666L214.331 82.3643V90H216.252ZM223.895 89.8496L223.901 88.3389H222.117V89.9385C222.117 90.4398 222.058 90.8682 221.939 91.2236C221.821 91.5837 221.675 91.9277 221.502 92.2559L222.507 92.7754C222.917 92.4108 223.25 91.9619 223.505 91.4287C223.765 90.8955 223.895 90.3691 223.895 89.8496ZM234.894 86.2129V83.834C234.894 83.1914 234.818 82.6263 234.668 82.1387C234.518 81.6465 234.303 81.234 234.025 80.9014C233.743 80.5732 233.401 80.3249 233 80.1562C232.599 79.9876 232.148 79.9033 231.646 79.9033C231.15 79.9033 230.701 79.9876 230.3 80.1562C229.903 80.3249 229.566 80.5732 229.288 80.9014C229.006 81.234 228.789 81.6465 228.639 82.1387C228.488 82.6263 228.413 83.1914 228.413 83.834V86.2129C228.413 86.8555 228.488 87.4229 228.639 87.915C228.794 88.4027 229.012 88.8105 229.295 89.1387C229.573 89.4714 229.912 89.722 230.313 89.8906C230.715 90.0592 231.163 90.1436 231.66 90.1436C232.161 90.1436 232.613 90.0592 233.014 89.8906C233.415 89.722 233.754 89.4714 234.032 89.1387C234.31 88.8105 234.522 88.4027 234.668 87.915C234.818 87.4229 234.894 86.8555 234.894 86.2129ZM230.327 85.3926C230.327 85.2513 230.327 85.1442 230.327 85.0713C230.327 84.9984 230.327 84.8525 230.327 84.6338V83.5332C230.327 83.1641 230.354 82.8451 230.409 82.5762C230.468 82.3073 230.557 82.0885 230.676 81.9199C230.785 81.7604 230.92 81.6419 231.079 81.5645C231.243 81.4824 231.432 81.4414 231.646 81.4414C231.838 81.4414 232.009 81.4733 232.159 81.5371C232.314 81.5964 232.444 81.6898 232.549 81.8174C232.686 81.9769 232.788 82.1911 232.856 82.46C232.929 82.7243 232.97 83.0433 232.979 83.417L230.327 85.3926ZM232.979 86.5C232.979 86.8691 232.95 87.1904 232.891 87.4639C232.836 87.7327 232.752 87.9538 232.638 88.127C232.528 88.291 232.392 88.4141 232.228 88.4961C232.063 88.5736 231.874 88.6123 231.66 88.6123C231.428 88.6123 231.227 88.5667 231.059 88.4756C230.89 88.3844 230.751 88.2454 230.642 88.0586C230.546 87.9036 230.471 87.71 230.416 87.4775C230.366 87.2451 230.336 86.9785 230.327 86.6777L232.979 84.709C232.979 84.8411 232.979 84.9437 232.979 85.0166C232.979 85.085 232.979 85.1943 232.979 85.3447V86.5Z" fill="black"/>
<path d="M21.4365 51.1973L20.9375 54H22.1611L22.6602 51.1973H24.3896V50.042H22.8652L23.2207 48.0596H24.9092V46.8906H23.4258L23.9385 44.0469H22.708L22.2021 46.8906H20.8281L21.334 44.0469H20.1172L19.6045 46.8906H17.793V48.0596H19.3994L19.0439 50.042H17.2803V51.1973H18.8389L18.3398 54H19.5635L20.0625 51.1973H21.4365ZM20.2676 50.042L20.6162 48.0596H21.9902L21.6416 50.042H20.2676ZM26.8779 46.6035V48.1553H28.9834V52.4551H26.8779V54H32.9072V52.4551H30.9043V46.6035H26.8779ZM28.8467 44.71C28.8467 44.8558 28.8717 44.9925 28.9219 45.1201C28.9766 45.2432 29.0518 45.348 29.1475 45.4346C29.2432 45.5257 29.3571 45.5964 29.4893 45.6465C29.626 45.6966 29.7764 45.7217 29.9404 45.7217C30.2777 45.7217 30.5443 45.6283 30.7402 45.4414C30.9408 45.25 31.041 45.0062 31.041 44.71C31.041 44.4137 30.9408 44.1722 30.7402 43.9854C30.5443 43.7939 30.2777 43.6982 29.9404 43.6982C29.7764 43.6982 29.626 43.7233 29.4893 43.7734C29.3571 43.8236 29.2432 43.8919 29.1475 43.9785C29.0518 44.0697 28.9766 44.179 28.9219 44.3066C28.8717 44.4297 28.8467 44.5641 28.8467 44.71ZM34.582 50.2471V50.3906C34.582 50.9284 34.6481 51.4274 34.7803 51.8877C34.9124 52.3434 35.1038 52.7376 35.3545 53.0703C35.6006 53.403 35.9014 53.665 36.2568 53.8564C36.6169 54.0433 37.0225 54.1367 37.4736 54.1367C37.8883 54.1367 38.2529 54.057 38.5674 53.8975C38.8818 53.738 39.1553 53.5146 39.3877 53.2275L39.4834 54H41.1992V43.5H39.292V47.2666C39.0641 47.0114 38.8021 46.8154 38.5059 46.6787C38.2142 46.5374 37.8747 46.4668 37.4873 46.4668C37.027 46.4668 36.6169 46.5579 36.2568 46.7402C35.9014 46.9225 35.5983 47.18 35.3477 47.5127C35.097 47.8454 34.9056 48.2441 34.7734 48.709C34.6458 49.1738 34.582 49.6865 34.582 50.2471ZM36.4824 50.3906V50.2471C36.4824 49.9372 36.5098 49.6478 36.5645 49.3789C36.6191 49.1055 36.7057 48.8662 36.8242 48.6611C36.9427 48.4606 37.0954 48.3034 37.2822 48.1895C37.4736 48.071 37.7038 48.0117 37.9727 48.0117C38.2962 48.0117 38.5651 48.0824 38.7793 48.2236C38.9935 48.3604 39.1644 48.554 39.292 48.8047V51.7988C39.1644 52.0449 38.9912 52.2386 38.7725 52.3799C38.5583 52.5212 38.2871 52.5918 37.959 52.5918C37.6901 52.5918 37.4622 52.5348 37.2754 52.4209C37.0885 52.307 36.9359 52.1497 36.8174 51.9492C36.6989 51.7533 36.6123 51.5231 36.5576 51.2588C36.5075 50.9899 36.4824 50.7005 36.4824 50.3906Z" fill="white"/>
<path d="M13.8848 89.8994C13.8848 90.2503 14.0033 90.5443 14.2402 90.7812C14.4772 91.0182 14.7985 91.1367 15.2041 91.1367C15.6051 91.1367 15.9242 91.0205 16.1611 90.7881C16.4027 90.5511 16.5234 90.2549 16.5234 89.8994C16.5234 89.5439 16.4049 89.2454 16.168 89.0039C15.9355 88.7624 15.6143 88.6416 15.2041 88.6416C14.7894 88.6416 14.4658 88.7646 14.2334 89.0107C14.001 89.2523 13.8848 89.5485 13.8848 89.8994ZM23.6465 89.6191C23.3411 89.6191 23.0882 89.5576 22.8877 89.4346C22.6917 89.3115 22.5368 89.1475 22.4229 88.9424C22.3044 88.7419 22.2223 88.5094 22.1768 88.2451C22.1312 87.9762 22.1084 87.6982 22.1084 87.4111V87.2061C22.1084 86.9235 22.1312 86.6501 22.1768 86.3857C22.2269 86.1214 22.3112 85.8867 22.4297 85.6816C22.5436 85.4766 22.6986 85.3125 22.8945 85.1895C23.0905 85.0664 23.3389 85.0049 23.6396 85.0049C23.8447 85.0049 24.0339 85.0413 24.207 85.1143C24.3802 85.1826 24.5283 85.276 24.6514 85.3945C24.7744 85.513 24.8678 85.6543 24.9316 85.8184C24.9954 85.9824 25.0228 86.1556 25.0137 86.3379H26.8047C26.8138 85.9004 26.7409 85.5062 26.5859 85.1553C26.431 84.7998 26.2145 84.4967 25.9365 84.2461C25.654 84 25.319 83.8086 24.9316 83.6719C24.5443 83.5352 24.1227 83.4668 23.667 83.4668C23.0973 83.4668 22.596 83.5648 22.1631 83.7607C21.7347 83.9567 21.3747 84.2233 21.083 84.5605C20.7913 84.8978 20.5726 85.2943 20.4268 85.75C20.2809 86.2012 20.208 86.6865 20.208 87.2061V87.4111C20.208 87.9307 20.2809 88.4183 20.4268 88.874C20.5771 89.3252 20.7982 89.7194 21.0898 90.0566C21.377 90.3939 21.737 90.6605 22.1699 90.8564C22.6029 91.0479 23.1064 91.1436 23.6807 91.1436C24.1045 91.1436 24.5055 91.0775 24.8838 90.9453C25.2666 90.8086 25.6016 90.6217 25.8887 90.3848C26.1758 90.1478 26.4014 89.8652 26.5654 89.5371C26.734 89.209 26.8138 88.8535 26.8047 88.4707H25.0137C25.0228 88.6439 24.9909 88.8011 24.918 88.9424C24.8496 89.0837 24.7516 89.2044 24.624 89.3047C24.4964 89.4049 24.3483 89.4824 24.1797 89.5371C24.0111 89.5918 23.8333 89.6191 23.6465 89.6191ZM29.1768 80.5V82.0518H31.3916V89.4551H29.1768V91H35.4316V89.4551H33.3125V80.5H29.1768ZM41.8096 91H43.7373V90.8838C43.6416 90.6969 43.5687 90.4736 43.5186 90.2139C43.4684 89.9541 43.4434 89.626 43.4434 89.2295V86.0576C43.4434 85.6292 43.3636 85.2533 43.2041 84.9297C43.0446 84.6016 42.8236 84.3304 42.541 84.1162C42.2585 83.902 41.9235 83.7402 41.5361 83.6309C41.1533 83.5215 40.7386 83.4668 40.292 83.4668C39.7952 83.4668 39.3532 83.5306 38.9658 83.6582C38.583 83.7812 38.2594 83.9499 37.9951 84.1641C37.7262 84.3783 37.5212 84.6266 37.3799 84.9092C37.2432 85.1917 37.1748 85.4902 37.1748 85.8047H39.0752C39.0752 85.6725 39.0934 85.5518 39.1299 85.4424C39.1709 85.333 39.2324 85.2396 39.3145 85.1621C39.4056 85.0755 39.5241 85.0094 39.6699 84.9639C39.8158 84.9137 39.9889 84.8887 40.1895 84.8887C40.4173 84.8887 40.6156 84.9183 40.7842 84.9775C40.9574 85.0322 41.1009 85.112 41.2148 85.2168C41.3242 85.3171 41.4062 85.4378 41.4609 85.5791C41.5156 85.7158 41.543 85.8708 41.543 86.0439V86.4814H40.4834C39.9365 86.4814 39.4512 86.5316 39.0273 86.6318C38.6081 86.7275 38.2549 86.8688 37.9678 87.0557C37.6488 87.2607 37.4095 87.5228 37.25 87.8418C37.0905 88.1562 37.0107 88.5186 37.0107 88.9287C37.0107 89.2477 37.0745 89.5439 37.2021 89.8174C37.3298 90.0863 37.5075 90.3187 37.7354 90.5146C37.9632 90.7106 38.2344 90.8633 38.5488 90.9727C38.8678 91.082 39.2165 91.1367 39.5947 91.1367C39.8271 91.1367 40.0436 91.1139 40.2441 91.0684C40.4447 91.0273 40.6292 90.9681 40.7979 90.8906C40.9619 90.8177 41.1123 90.7311 41.249 90.6309C41.3857 90.5306 41.5065 90.4235 41.6113 90.3096C41.6341 90.4417 41.6615 90.5671 41.6934 90.6855C41.7253 90.804 41.764 90.9089 41.8096 91ZM39.998 89.667C39.8203 89.667 39.6631 89.6465 39.5264 89.6055C39.3942 89.5599 39.2826 89.5007 39.1914 89.4277C39.1003 89.3503 39.0296 89.2568 38.9795 89.1475C38.9339 89.0335 38.9111 88.9105 38.9111 88.7783C38.9111 88.6097 38.943 88.4548 39.0068 88.3135C39.0706 88.1676 39.1686 88.0423 39.3008 87.9375C39.4329 87.8372 39.6038 87.7598 39.8135 87.7051C40.0231 87.6458 40.276 87.6162 40.5723 87.6162H41.543V88.8877C41.4883 88.9834 41.4131 89.0791 41.3174 89.1748C41.2217 89.266 41.1077 89.348 40.9756 89.4209C40.8434 89.4938 40.6953 89.5531 40.5312 89.5986C40.3672 89.6442 40.1895 89.667 39.998 89.667ZM50.3682 88.9697C50.3682 89.0837 50.3385 89.1885 50.2793 89.2842C50.2246 89.3799 50.1403 89.4642 50.0264 89.5371C49.9079 89.61 49.7552 89.6693 49.5684 89.7148C49.3861 89.7559 49.1719 89.7764 48.9258 89.7764C48.7207 89.7764 48.5202 89.7559 48.3242 89.7148C48.1328 89.6738 47.9619 89.6077 47.8115 89.5166C47.6611 89.43 47.5381 89.3161 47.4424 89.1748C47.3467 89.029 47.292 88.8558 47.2783 88.6553H45.4668C45.4668 88.9561 45.5397 89.2568 45.6855 89.5576C45.8359 89.8538 46.0547 90.1182 46.3418 90.3506C46.6289 90.5876 46.9844 90.779 47.4082 90.9248C47.8366 91.0706 48.3288 91.1436 48.8848 91.1436C49.3906 91.1436 49.8486 91.0889 50.2588 90.9795C50.6689 90.8656 51.0199 90.7083 51.3115 90.5078C51.5986 90.3073 51.8197 90.0703 51.9746 89.7969C52.1341 89.5189 52.2139 89.2158 52.2139 88.8877C52.2139 88.5322 52.1341 88.2269 51.9746 87.9717C51.8197 87.7119 51.6032 87.4909 51.3252 87.3086C51.0472 87.1309 50.7168 86.985 50.334 86.8711C49.9512 86.7572 49.5365 86.6637 49.0898 86.5908C48.7799 86.5452 48.5247 86.4928 48.3242 86.4336C48.1237 86.3698 47.9665 86.2992 47.8525 86.2217C47.734 86.1488 47.652 86.0667 47.6064 85.9756C47.5609 85.8799 47.5381 85.7773 47.5381 85.668C47.5381 85.5586 47.5632 85.4561 47.6133 85.3604C47.668 85.2601 47.7454 85.1735 47.8457 85.1006C47.9551 85.0186 48.0964 84.9548 48.2695 84.9092C48.4427 84.8636 48.6455 84.8408 48.8779 84.8408C49.1514 84.8408 49.3838 84.875 49.5752 84.9434C49.7712 85.0117 49.9261 85.1029 50.04 85.2168C50.1221 85.3034 50.1836 85.4014 50.2246 85.5107C50.2656 85.6156 50.2861 85.7295 50.2861 85.8525H52.1865C52.1865 85.5107 52.1113 85.194 51.9609 84.9023C51.8105 84.6107 51.5941 84.3577 51.3115 84.1436C51.0244 83.9339 50.6758 83.7699 50.2656 83.6514C49.8555 83.5283 49.3929 83.4668 48.8779 83.4668C48.3857 83.4668 47.9437 83.5283 47.5518 83.6514C47.1598 83.7744 46.8271 83.9408 46.5537 84.1504C46.2803 84.36 46.0706 84.6038 45.9248 84.8818C45.779 85.1598 45.7061 85.4515 45.7061 85.7568C45.7061 86.0713 45.7767 86.3493 45.918 86.5908C46.0638 86.8324 46.2643 87.0443 46.5195 87.2266C46.7747 87.4134 47.0801 87.5729 47.4355 87.7051C47.7956 87.8327 48.1921 87.9398 48.625 88.0264C48.9668 88.0902 49.2493 88.154 49.4727 88.2178C49.696 88.2816 49.876 88.3499 50.0127 88.4229C50.1449 88.5003 50.236 88.5824 50.2861 88.6689C50.3408 88.7555 50.3682 88.8558 50.3682 88.9697ZM58.7764 88.9697C58.7764 89.0837 58.7467 89.1885 58.6875 89.2842C58.6328 89.3799 58.5485 89.4642 58.4346 89.5371C58.3161 89.61 58.1634 89.6693 57.9766 89.7148C57.7943 89.7559 57.5801 89.7764 57.334 89.7764C57.1289 89.7764 56.9284 89.7559 56.7324 89.7148C56.541 89.6738 56.3701 89.6077 56.2197 89.5166C56.0693 89.43 55.9463 89.3161 55.8506 89.1748C55.7549 89.029 55.7002 88.8558 55.6865 88.6553H53.875C53.875 88.9561 53.9479 89.2568 54.0938 89.5576C54.2441 89.8538 54.4629 90.1182 54.75 90.3506C55.0371 90.5876 55.3926 90.779 55.8164 90.9248C56.2448 91.0706 56.737 91.1436 57.293 91.1436C57.7988 91.1436 58.2568 91.0889 58.667 90.9795C59.0771 90.8656 59.4281 90.7083 59.7197 90.5078C60.0068 90.3073 60.2279 90.0703 60.3828 89.7969C60.5423 89.5189 60.6221 89.2158 60.6221 88.8877C60.6221 88.5322 60.5423 88.2269 60.3828 87.9717C60.2279 87.7119 60.0114 87.4909 59.7334 87.3086C59.4554 87.1309 59.125 86.985 58.7422 86.8711C58.3594 86.7572 57.9447 86.6637 57.498 86.5908C57.1882 86.5452 56.9329 86.4928 56.7324 86.4336C56.5319 86.3698 56.3747 86.2992 56.2607 86.2217C56.1423 86.1488 56.0602 86.0667 56.0146 85.9756C55.9691 85.8799 55.9463 85.7773 55.9463 85.668C55.9463 85.5586 55.9714 85.4561 56.0215 85.3604C56.0762 85.2601 56.1536 85.1735 56.2539 85.1006C56.3633 85.0186 56.5046 84.9548 56.6777 84.9092C56.8509 84.8636 57.0537 84.8408 57.2861 84.8408C57.5596 84.8408 57.792 84.875 57.9834 84.9434C58.1794 85.0117 58.3343 85.1029 58.4482 85.2168C58.5303 85.3034 58.5918 85.4014 58.6328 85.5107C58.6738 85.6156 58.6943 85.7295 58.6943 85.8525H60.5947C60.5947 85.5107 60.5195 85.194 60.3691 84.9023C60.2188 84.6107 60.0023 84.3577 59.7197 84.1436C59.4326 83.9339 59.084 83.7699 58.6738 83.6514C58.2637 83.5283 57.8011 83.4668 57.2861 83.4668C56.7939 83.4668 56.3519 83.5283 55.96 83.6514C55.568 83.7744 55.2354 83.9408 54.9619 84.1504C54.6885 84.36 54.4788 84.6038 54.333 84.8818C54.1872 85.1598 54.1143 85.4515 54.1143 85.7568C54.1143 86.0713 54.1849 86.3493 54.3262 86.5908C54.472 86.8324 54.6725 87.0443 54.9277 87.2266C55.1829 87.4134 55.4883 87.5729 55.8438 87.7051C56.2038 87.8327 56.6003 87.9398 57.0332 88.0264C57.375 88.0902 57.6576 88.154 57.8809 88.2178C58.1042 88.2816 58.2842 88.3499 58.4209 88.4229C58.5531 88.5003 58.6442 88.5824 58.6943 88.6689C58.749 88.7555 58.7764 88.8558 58.7764 88.9697Z" fill="white"/>
<path d="M15.79 114.917V113.447H12.7344V127.29H15.79V125.82H14.6279V114.917H15.79ZM23.9932 125H25.9209V124.884C25.8252 124.697 25.7523 124.474 25.7021 124.214C25.652 123.954 25.627 123.626 25.627 123.229V120.058C25.627 119.629 25.5472 119.253 25.3877 118.93C25.2282 118.602 25.0072 118.33 24.7246 118.116C24.4421 117.902 24.1071 117.74 23.7197 117.631C23.3369 117.521 22.9222 117.467 22.4756 117.467C21.9788 117.467 21.5368 117.531 21.1494 117.658C20.7666 117.781 20.443 117.95 20.1787 118.164C19.9098 118.378 19.7048 118.627 19.5635 118.909C19.4268 119.192 19.3584 119.49 19.3584 119.805H21.2588C21.2588 119.673 21.277 119.552 21.3135 119.442C21.3545 119.333 21.416 119.24 21.498 119.162C21.5892 119.076 21.7077 119.009 21.8535 118.964C21.9993 118.914 22.1725 118.889 22.373 118.889C22.6009 118.889 22.7992 118.918 22.9678 118.978C23.141 119.032 23.2845 119.112 23.3984 119.217C23.5078 119.317 23.5898 119.438 23.6445 119.579C23.6992 119.716 23.7266 119.871 23.7266 120.044V120.481H22.667C22.1201 120.481 21.6348 120.532 21.2109 120.632C20.7917 120.728 20.4385 120.869 20.1514 121.056C19.8324 121.261 19.5931 121.523 19.4336 121.842C19.2741 122.156 19.1943 122.519 19.1943 122.929C19.1943 123.248 19.2581 123.544 19.3857 123.817C19.5133 124.086 19.6911 124.319 19.9189 124.515C20.1468 124.711 20.418 124.863 20.7324 124.973C21.0514 125.082 21.4001 125.137 21.7783 125.137C22.0107 125.137 22.2272 125.114 22.4277 125.068C22.6283 125.027 22.8128 124.968 22.9814 124.891C23.1455 124.818 23.2959 124.731 23.4326 124.631C23.5693 124.531 23.6901 124.424 23.7949 124.31C23.8177 124.442 23.8451 124.567 23.877 124.686C23.9089 124.804 23.9476 124.909 23.9932 125ZM22.1816 123.667C22.0039 123.667 21.8467 123.646 21.71 123.605C21.5778 123.56 21.4661 123.501 21.375 123.428C21.2839 123.35 21.2132 123.257 21.1631 123.147C21.1175 123.034 21.0947 122.91 21.0947 122.778C21.0947 122.61 21.1266 122.455 21.1904 122.313C21.2542 122.168 21.3522 122.042 21.4844 121.938C21.6165 121.837 21.7874 121.76 21.9971 121.705C22.2067 121.646 22.4596 121.616 22.7559 121.616H23.7266V122.888C23.6719 122.983 23.5967 123.079 23.501 123.175C23.4053 123.266 23.2913 123.348 23.1592 123.421C23.027 123.494 22.8789 123.553 22.7148 123.599C22.5508 123.644 22.373 123.667 22.1816 123.667ZM31.2666 115.792H29.3662V117.604H27.6777V119.005H29.3662V122.368C29.3662 122.856 29.43 123.275 29.5576 123.626C29.6852 123.972 29.8675 124.257 30.1045 124.48C30.3369 124.708 30.6172 124.877 30.9453 124.986C31.278 125.091 31.6471 125.144 32.0527 125.144C32.2624 125.144 32.4743 125.132 32.6885 125.109C32.9072 125.091 33.1169 125.064 33.3174 125.027C33.5179 124.991 33.707 124.945 33.8848 124.891C34.0625 124.831 34.2174 124.763 34.3496 124.686L34.165 123.38C34.0785 123.403 33.9736 123.425 33.8506 123.448C33.7321 123.471 33.6045 123.492 33.4678 123.51C33.3265 123.533 33.1784 123.551 33.0234 123.564C32.873 123.578 32.7249 123.585 32.5791 123.585C32.3786 123.585 32.1963 123.562 32.0322 123.517C31.8727 123.471 31.736 123.394 31.6221 123.284C31.5081 123.179 31.4193 123.038 31.3555 122.86C31.2962 122.678 31.2666 122.452 31.2666 122.184V119.005H34.0283V117.604H31.2666V115.792ZM39.6748 115.792H37.7744V117.604H36.0859V119.005H37.7744V122.368C37.7744 122.856 37.8382 123.275 37.9658 123.626C38.0934 123.972 38.2757 124.257 38.5127 124.48C38.7451 124.708 39.0254 124.877 39.3535 124.986C39.6862 125.091 40.0553 125.144 40.4609 125.144C40.6706 125.144 40.8825 125.132 41.0967 125.109C41.3154 125.091 41.5251 125.064 41.7256 125.027C41.9261 124.991 42.1152 124.945 42.293 124.891C42.4707 124.831 42.6257 124.763 42.7578 124.686L42.5732 123.38C42.4867 123.403 42.3818 123.425 42.2588 123.448C42.1403 123.471 42.0127 123.492 41.876 123.51C41.7347 123.533 41.5866 123.551 41.4316 123.564C41.2812 123.578 41.1331 123.585 40.9873 123.585C40.7868 123.585 40.6045 123.562 40.4404 123.517C40.2809 123.471 40.1442 123.394 40.0303 123.284C39.9163 123.179 39.8275 123.038 39.7637 122.86C39.7044 122.678 39.6748 122.452 39.6748 122.184V119.005H42.4365V117.604H39.6748V115.792ZM49.9082 117.467C49.4115 117.467 48.9535 117.588 48.5342 117.829C48.1149 118.066 47.7549 118.394 47.4541 118.813L47.4404 118.649L47.3652 117.604H45.5947V125H47.4951V120.557C47.5817 120.347 47.6911 120.165 47.8232 120.01C47.9554 119.855 48.1149 119.727 48.3018 119.627C48.4567 119.54 48.6322 119.477 48.8281 119.436C49.0286 119.39 49.252 119.367 49.498 119.367C49.735 119.367 49.9834 119.383 50.2432 119.415C50.5075 119.442 50.765 119.486 51.0156 119.545L51.2959 117.651C51.1455 117.606 50.9473 117.565 50.7012 117.528C50.4596 117.487 50.1953 117.467 49.9082 117.467ZM54.7754 113.447V114.917H55.9443V125.82H54.7754V127.29H57.8379V113.447H54.7754ZM67.9961 120.099V118.54H61.5293V120.099H67.9961ZM67.9961 123.045V121.493H61.5293V123.045H67.9961ZM72.1729 125H73.957L76.7666 117.604H74.7842L73.1641 122.819L73.0615 123.339L72.959 122.819L71.332 117.604H69.3496L72.1729 125ZM82.8506 125H84.7783V124.884C84.6826 124.697 84.6097 124.474 84.5596 124.214C84.5094 123.954 84.4844 123.626 84.4844 123.229V120.058C84.4844 119.629 84.4046 119.253 84.2451 118.93C84.0856 118.602 83.8646 118.33 83.582 118.116C83.2995 117.902 82.9645 117.74 82.5771 117.631C82.1943 117.521 81.7796 117.467 81.333 117.467C80.8363 117.467 80.3942 117.531 80.0068 117.658C79.624 117.781 79.3005 117.95 79.0361 118.164C78.7673 118.378 78.5622 118.627 78.4209 118.909C78.2842 119.192 78.2158 119.49 78.2158 119.805H80.1162C80.1162 119.673 80.1344 119.552 80.1709 119.442C80.2119 119.333 80.2734 119.24 80.3555 119.162C80.4466 119.076 80.5651 119.009 80.7109 118.964C80.8568 118.914 81.0299 118.889 81.2305 118.889C81.4583 118.889 81.6566 118.918 81.8252 118.978C81.9984 119.032 82.1419 119.112 82.2559 119.217C82.3652 119.317 82.4473 119.438 82.502 119.579C82.5566 119.716 82.584 119.871 82.584 120.044V120.481H81.5244C80.9775 120.481 80.4922 120.532 80.0684 120.632C79.6491 120.728 79.2959 120.869 79.0088 121.056C78.6898 121.261 78.4505 121.523 78.291 121.842C78.1315 122.156 78.0518 122.519 78.0518 122.929C78.0518 123.248 78.1156 123.544 78.2432 123.817C78.3708 124.086 78.5485 124.319 78.7764 124.515C79.0042 124.711 79.2754 124.863 79.5898 124.973C79.9089 125.082 80.2575 125.137 80.6357 125.137C80.8682 125.137 81.0846 125.114 81.2852 125.068C81.4857 125.027 81.6702 124.968 81.8389 124.891C82.0029 124.818 82.1533 124.731 82.29 124.631C82.4268 124.531 82.5475 124.424 82.6523 124.31C82.6751 124.442 82.7025 124.567 82.7344 124.686C82.7663 124.804 82.805 124.909 82.8506 125ZM81.0391 123.667C80.8613 123.667 80.7041 123.646 80.5674 123.605C80.4352 123.56 80.3236 123.501 80.2324 123.428C80.1413 123.35 80.0706 123.257 80.0205 123.147C79.9749 123.034 79.9521 122.91 79.9521 122.778C79.9521 122.61 79.984 122.455 80.0479 122.313C80.1117 122.168 80.2096 122.042 80.3418 121.938C80.474 121.837 80.6449 121.76 80.8545 121.705C81.0641 121.646 81.3171 121.616 81.6133 121.616H82.584V122.888C82.5293 122.983 82.4541 123.079 82.3584 123.175C82.2627 123.266 82.1488 123.348 82.0166 123.421C81.8844 123.494 81.7363 123.553 81.5723 123.599C81.4082 123.644 81.2305 123.667 81.0391 123.667ZM87.0342 114.5V116.052H89.249V123.455H87.0342V125H93.2891V123.455H91.1699V114.5H87.0342ZM99.8721 125H101.595V117.604H99.6875V122.792C99.6283 122.91 99.5576 123.018 99.4756 123.113C99.3936 123.209 99.3001 123.291 99.1953 123.359C99.0723 123.437 98.9287 123.496 98.7646 123.537C98.6051 123.578 98.4251 123.599 98.2246 123.599C98.0013 123.599 97.8122 123.571 97.6572 123.517C97.5023 123.462 97.377 123.371 97.2812 123.243C97.1855 123.12 97.1149 122.956 97.0693 122.751C97.0283 122.546 97.0078 122.293 97.0078 121.992V117.604H95.1074V121.979C95.1074 122.539 95.1689 123.02 95.292 123.421C95.4196 123.817 95.5973 124.143 95.8252 124.398C96.0531 124.658 96.3265 124.847 96.6455 124.966C96.9645 125.084 97.3154 125.144 97.6982 125.144C98.1175 125.144 98.5026 125.039 98.8535 124.829C99.209 124.619 99.512 124.33 99.7627 123.961L99.8721 125ZM107.043 125.137C107.758 125.137 108.378 124.998 108.902 124.72C109.426 124.442 109.809 124.132 110.051 123.79L109.101 122.765C108.882 123.047 108.597 123.259 108.246 123.4C107.895 123.542 107.533 123.612 107.159 123.612C106.895 123.612 106.651 123.571 106.428 123.489C106.204 123.407 106.006 123.291 105.833 123.141C105.664 122.995 105.53 122.833 105.43 122.655C105.329 122.473 105.247 122.234 105.184 121.938V121.917H110.201V121.11C110.201 120.568 110.126 120.074 109.976 119.627C109.825 119.176 109.606 118.791 109.319 118.472C109.028 118.153 108.672 117.907 108.253 117.733C107.838 117.556 107.364 117.467 106.831 117.467C106.316 117.467 105.84 117.56 105.402 117.747C104.965 117.934 104.587 118.196 104.268 118.533C103.949 118.87 103.7 119.274 103.522 119.743C103.345 120.208 103.256 120.723 103.256 121.288V121.562C103.256 122.058 103.345 122.525 103.522 122.963C103.705 123.396 103.962 123.772 104.295 124.091C104.628 124.414 105.026 124.67 105.491 124.856C105.956 125.043 106.473 125.137 107.043 125.137ZM106.817 119.005C107.059 119.005 107.271 119.044 107.453 119.121C107.64 119.194 107.797 119.294 107.925 119.422C108.052 119.554 108.153 119.709 108.226 119.887C108.299 120.064 108.335 120.254 108.335 120.454V120.604H105.218C105.263 120.363 105.332 120.144 105.423 119.948C105.514 119.752 105.628 119.584 105.765 119.442C105.897 119.301 106.052 119.194 106.229 119.121C106.407 119.044 106.603 119.005 106.817 119.005Z" fill="white"/>
<path d="M11.3604 151.5V153.052H13.5752V160.455H11.3604V162H17.6152V160.455H15.4961V151.5H11.3604ZM19.8779 154.604V156.155H21.9834V160.455H19.8779V162H25.9072V160.455H23.9043V154.604H19.8779ZM21.8467 152.71C21.8467 152.856 21.8717 152.993 21.9219 153.12C21.9766 153.243 22.0518 153.348 22.1475 153.435C22.2432 153.526 22.3571 153.596 22.4893 153.646C22.626 153.697 22.7764 153.722 22.9404 153.722C23.2777 153.722 23.5443 153.628 23.7402 153.441C23.9408 153.25 24.041 153.006 24.041 152.71C24.041 152.414 23.9408 152.172 23.7402 151.985C23.5443 151.794 23.2777 151.698 22.9404 151.698C22.7764 151.698 22.626 151.723 22.4893 151.773C22.3571 151.824 22.2432 151.892 22.1475 151.979C22.0518 152.07 21.9766 152.179 21.9219 152.307C21.8717 152.43 21.8467 152.564 21.8467 152.71ZM37.583 157.953V158.104C37.583 158.751 37.6309 159.357 37.7266 159.922C37.8268 160.487 37.9613 161.009 38.1299 161.487C38.2985 161.97 38.4945 162.41 38.7178 162.807C38.9456 163.203 39.1849 163.552 39.4355 163.853C39.6862 164.158 39.9437 164.418 40.208 164.632C40.4769 164.846 40.7367 165.01 40.9873 165.124L41.3564 164.099C41.1787 163.962 40.9987 163.791 40.8164 163.586C40.6341 163.381 40.4609 163.139 40.2969 162.861C40.1419 162.606 39.9961 162.308 39.8594 161.966C39.7272 161.624 39.611 161.253 39.5107 160.852C39.4378 160.564 39.3695 160.179 39.3057 159.696C39.2464 159.213 39.2168 158.687 39.2168 158.117V157.939C39.2168 157.361 39.2487 156.825 39.3125 156.333C39.3763 155.841 39.4606 155.392 39.5654 154.986C39.6839 154.567 39.8206 154.18 39.9756 153.824C40.1351 153.469 40.306 153.161 40.4883 152.901C40.6296 152.701 40.7731 152.523 40.9189 152.368C41.0648 152.213 41.2106 152.081 41.3564 151.972L40.9873 150.933C40.7367 151.047 40.4769 151.211 40.208 151.425C39.9437 151.634 39.6862 151.892 39.4355 152.197C39.1849 152.503 38.9456 152.854 38.7178 153.25C38.4945 153.646 38.2985 154.084 38.1299 154.562C37.9613 155.046 37.8268 155.572 37.7266 156.142C37.6309 156.707 37.583 157.311 37.583 157.953ZM51.043 162V154.604H44.46V162H46.3672V156.148H49.1357V162H51.043ZM52.7451 158.233V158.377C52.7451 158.919 52.8226 159.421 52.9775 159.881C53.1325 160.337 53.3604 160.733 53.6611 161.07C53.9574 161.408 54.3219 161.672 54.7549 161.863C55.1924 162.05 55.6891 162.144 56.2451 162.144C56.7965 162.144 57.2887 162.05 57.7217 161.863C58.1546 161.672 58.5192 161.408 58.8154 161.07C59.1117 160.733 59.3372 160.337 59.4922 159.881C59.6471 159.421 59.7246 158.919 59.7246 158.377V158.233C59.7246 157.696 59.6471 157.199 59.4922 156.743C59.3372 156.283 59.1117 155.884 58.8154 155.547C58.5146 155.21 58.1478 154.945 57.7148 154.754C57.2819 154.562 56.7874 154.467 56.2314 154.467C55.6755 154.467 55.181 154.562 54.748 154.754C54.3197 154.945 53.9574 155.21 53.6611 155.547C53.3604 155.884 53.1325 156.283 52.9775 156.743C52.8226 157.199 52.7451 157.696 52.7451 158.233ZM54.6455 158.377V158.233C54.6455 157.933 54.6751 157.648 54.7344 157.379C54.7936 157.11 54.887 156.873 55.0146 156.668C55.1423 156.463 55.3063 156.301 55.5068 156.183C55.7074 156.064 55.9489 156.005 56.2314 156.005C56.5186 156.005 56.7624 156.064 56.9629 156.183C57.1634 156.301 57.3275 156.463 57.4551 156.668C57.5781 156.873 57.6693 157.11 57.7285 157.379C57.7878 157.648 57.8174 157.933 57.8174 158.233V158.377C57.8174 158.687 57.7878 158.979 57.7285 159.252C57.6693 159.521 57.5781 159.756 57.4551 159.956C57.3275 160.161 57.1634 160.323 56.9629 160.441C56.7624 160.56 56.5231 160.619 56.2451 160.619C55.958 160.619 55.7119 160.56 55.5068 160.441C55.3063 160.323 55.1423 160.161 55.0146 159.956C54.887 159.756 54.7936 159.521 54.7344 159.252C54.6751 158.979 54.6455 158.687 54.6455 158.377ZM77.0742 156.128V154.604H69.4932V156.128H72.3164V162H74.2236V156.128H77.0742ZM81.8184 162.137C82.5339 162.137 83.1536 161.998 83.6777 161.72C84.2018 161.442 84.5846 161.132 84.8262 160.79L83.876 159.765C83.6572 160.047 83.3724 160.259 83.0215 160.4C82.6706 160.542 82.3083 160.612 81.9346 160.612C81.6702 160.612 81.4264 160.571 81.2031 160.489C80.9798 160.407 80.7816 160.291 80.6084 160.141C80.4398 159.995 80.3053 159.833 80.2051 159.655C80.1048 159.473 80.0228 159.234 79.959 158.938V158.917H84.9766V158.11C84.9766 157.568 84.9014 157.074 84.751 156.627C84.6006 156.176 84.3818 155.791 84.0947 155.472C83.8031 155.153 83.4476 154.907 83.0283 154.733C82.6136 154.556 82.1396 154.467 81.6064 154.467C81.0915 154.467 80.6152 154.56 80.1777 154.747C79.7402 154.934 79.362 155.196 79.043 155.533C78.724 155.87 78.4756 156.274 78.2979 156.743C78.1201 157.208 78.0312 157.723 78.0312 158.288V158.562C78.0312 159.058 78.1201 159.525 78.2979 159.963C78.4801 160.396 78.7376 160.772 79.0703 161.091C79.403 161.414 79.8018 161.67 80.2666 161.856C80.7314 162.043 81.2487 162.137 81.8184 162.137ZM81.5928 156.005C81.8343 156.005 82.0462 156.044 82.2285 156.121C82.4154 156.194 82.5726 156.294 82.7002 156.422C82.8278 156.554 82.9281 156.709 83.001 156.887C83.0739 157.064 83.1104 157.254 83.1104 157.454V157.604H79.9932C80.0387 157.363 80.1071 157.144 80.1982 156.948C80.2894 156.752 80.4033 156.584 80.54 156.442C80.6722 156.301 80.8271 156.194 81.0049 156.121C81.1826 156.044 81.3786 156.005 81.5928 156.005ZM93.0156 156.148V154.604H86.6514V162H88.5449V156.148H93.0156ZM96.2148 164.987C96.5977 164.987 96.9281 164.924 97.2061 164.796C97.4886 164.668 97.7279 164.511 97.9238 164.324C98.1198 164.137 98.2816 163.935 98.4092 163.716C98.5413 163.497 98.6484 163.294 98.7305 163.107L102.483 154.604H100.385L98.6963 158.951L98.416 159.689L98.2109 158.938L96.5156 154.604H94.4375L97.5684 161.686L97.1309 162.499C97.0762 162.599 97.0283 162.677 96.9873 162.731C96.9508 162.786 96.8916 162.868 96.8096 162.978C96.7275 163.087 96.6273 163.187 96.5088 163.278C96.3949 163.374 96.2627 163.422 96.1123 163.422C96.0394 163.422 95.9414 163.417 95.8184 163.408C95.6999 163.404 95.6019 163.401 95.5244 163.401L95.292 164.851C95.4561 164.896 95.6042 164.93 95.7363 164.953C95.873 164.976 96.0326 164.987 96.2148 164.987ZM108.513 158.104V157.953C108.513 157.329 108.463 156.739 108.362 156.183C108.262 155.622 108.125 155.1 107.952 154.617C107.779 154.134 107.576 153.694 107.344 153.298C107.116 152.897 106.872 152.539 106.612 152.225C106.353 151.915 106.086 151.65 105.812 151.432C105.539 151.213 105.272 151.047 105.013 150.933L104.65 151.951C104.787 152.056 104.924 152.184 105.061 152.334C105.202 152.48 105.339 152.646 105.471 152.833C105.667 153.116 105.851 153.451 106.024 153.838C106.202 154.225 106.353 154.663 106.476 155.15C106.571 155.542 106.646 155.971 106.701 156.436C106.76 156.9 106.79 157.402 106.79 157.939V158.117C106.79 158.669 106.76 159.181 106.701 159.655C106.646 160.129 106.571 160.562 106.476 160.954C106.362 161.382 106.229 161.77 106.079 162.116C105.933 162.463 105.771 162.772 105.594 163.046C105.443 163.278 105.288 163.481 105.129 163.654C104.969 163.832 104.81 163.98 104.65 164.099L105.013 165.124C105.272 165.01 105.539 164.844 105.812 164.625C106.086 164.406 106.353 164.14 106.612 163.825C106.872 163.515 107.116 163.16 107.344 162.759C107.576 162.362 107.779 161.923 107.952 161.439C108.125 160.956 108.262 160.437 108.362 159.881C108.463 159.32 108.513 158.728 108.513 158.104Z" fill="white"/>
<path d="M14.7324 191.916L12.832 194.151L14.0557 194.992L15.498 192.524L16.9404 195.067L18.1572 194.186L16.3252 191.978L19.0459 191.355L18.5947 189.927L16.0518 191.041L16.3184 188.047H14.8213L15.0674 190.993L12.5039 189.858L12.0527 191.26L14.7324 191.916Z" fill="white"/>
<path d="M148.354 14.3536C148.549 14.1583 148.549 13.8417 148.354 13.6464L145.172 10.4645C144.976 10.2692 144.66 10.2692 144.464 10.4645C144.269 10.6597 144.269 10.9763 144.464 11.1716L147.293 14L144.464 16.8284C144.269 17.0237 144.269 17.3403 144.464 17.5355C144.66 17.7308 144.976 17.7308 145.172 17.5355L148.354 14.3536ZM122 14.5H148V13.5H122V14.5Z" fill="black"/>
<path d="M148.354 14.3536C148.549 14.1583 148.549 13.8417 148.354 13.6464L145.172 10.4645C144.976 10.2692 144.66 10.2692 144.464 10.4645C144.269 10.6597 144.269 10.9763 144.464 11.1716L147.293 14L144.464 16.8284C144.269 17.0237 144.269 17.3403 144.464 17.5355C144.66 17.7308 144.976 17.7308 145.172 17.5355L148.354 14.3536ZM122 14.5H148V13.5H122V14.5Z" fill="black"/>
<path d="M148.354 194.354C148.549 194.158 148.549 193.842 148.354 193.646L145.172 190.464C144.976 190.269 144.66 190.269 144.464 190.464C144.269 190.66 144.269 190.976 144.464 191.172L147.293 194L144.464 196.828C144.269 197.024 144.269 197.34 144.464 197.536C144.66 197.731 144.976 197.731 145.172 197.536L148.354 194.354ZM122 194.5H148V193.5H122V194.5Z" fill="black"/>
<path d="M148.354 194.354C148.549 194.158 148.549 193.842 148.354 193.646L145.172 190.464C144.976 190.269 144.66 190.269 144.464 190.464C144.269 190.66 144.269 190.976 144.464 191.172L147.293 194L144.464 196.828C144.269 197.024 144.269 197.34 144.464 197.536C144.66 197.731 144.976 197.731 145.172 197.536L148.354 194.354ZM122 194.5H148V193.5H122V194.5Z" fill="black"/>
<path d="M148.354 158.354C148.549 158.158 148.549 157.842 148.354 157.646L145.172 154.464C144.976 154.269 144.66 154.269 144.464 154.464C144.269 154.66 144.269 154.976 144.464 155.172L147.293 158L144.464 160.828C144.269 161.024 144.269 161.34 144.464 161.536C144.66 161.731 144.976 161.731 145.172 161.536L148.354 158.354ZM122 158.5H148V157.5H122V158.5Z" fill="black"/>
<path d="M148.354 158.354C148.549 158.158 148.549 157.842 148.354 157.646L145.172 154.464C144.976 154.269 144.66 154.269 144.464 154.464C144.269 154.66 144.269 154.976 144.464 155.172L147.293 158L144.464 160.828C144.269 161.024 144.269 161.34 144.464 161.536C144.66 161.731 144.976 161.731 145.172 161.536L148.354 158.354ZM122 158.5H148V157.5H122V158.5Z" fill="black"/>
<path d="M148.354 122.354C148.549 122.158 148.549 121.842 148.354 121.646L145.172 118.464C144.976 118.269 144.66 118.269 144.464 118.464C144.269 118.66 144.269 118.976 144.464 119.172L147.293 122L144.464 124.828C144.269 125.024 144.269 125.34 144.464 125.536C144.66 125.731 144.976 125.731 145.172 125.536L148.354 122.354ZM122 122.5H148V121.5H122V122.5Z" fill="black"/>
<path d="M148.354 122.354C148.549 122.158 148.549 121.842 148.354 121.646L145.172 118.464C144.976 118.269 144.66 118.269 144.464 118.464C144.269 118.66 144.269 118.976 144.464 119.172L147.293 122L144.464 124.828C144.269 125.024 144.269 125.34 144.464 125.536C144.66 125.731 144.976 125.731 145.172 125.536L148.354 122.354ZM122 122.5H148V121.5H122V122.5Z" fill="black"/>
<path d="M148.354 87.3536C148.549 87.1583 148.549 86.8417 148.354 86.6464L145.172 83.4645C144.976 83.2692 144.66 83.2692 144.464 83.4645C144.269 83.6597 144.269 83.9763 144.464 84.1716L147.293 87L144.464 89.8284C144.269 90.0237 144.269 90.3403 144.464 90.5355C144.66 90.7308 144.976 90.7308 145.172 90.5355L148.354 87.3536ZM122 87.5H148V86.5H122V87.5Z" fill="black"/>
<path d="M148.354 87.3536C148.549 87.1583 148.549 86.8417 148.354 86.6464L145.172 83.4645C144.976 83.2692 144.66 83.2692 144.464 83.4645C144.269 83.6597 144.269 83.9763 144.464 84.1716L147.293 87L144.464 89.8284C144.269 90.0237 144.269 90.3403 144.464 90.5355C144.66 90.7308 144.976 90.7308 145.172 90.5355L148.354 87.3536ZM122 87.5H148V86.5H122V87.5Z" fill="black"/>
<path d="M148.354 50.3536C148.549 50.1583 148.549 49.8417 148.354 49.6464L145.172 46.4645C144.976 46.2692 144.66 46.2692 144.464 46.4645C144.269 46.6597 144.269 46.9763 144.464 47.1716L147.293 50L144.464 52.8284C144.269 53.0237 144.269 53.3403 144.464 53.5355C144.66 53.7308 144.976 53.7308 145.172 53.5355L148.354 50.3536ZM122 50.5H148V49.5H122V50.5Z" fill="black"/>
<path d="M148.354 50.3536C148.549 50.1583 148.549 49.8417 148.354 49.6464L145.172 46.4645C144.976 46.2692 144.66 46.2692 144.464 46.4645C144.269 46.6597 144.269 46.9763 144.464 47.1716L147.293 50L144.464 52.8284C144.269 53.0237 144.269 53.3403 144.464 53.5355C144.66 53.7308 144.976 53.7308 145.172 53.5355L148.354 50.3536ZM122 50.5H148V49.5H122V50.5Z" fill="black"/>
</svg>
